<svg width="393" height="852" viewBox="0 0 393 852" fill="none" xmlns="http://www.w3.org/2000/svg">
<g opacity="0.15">
<mask id="mask0_495_4943" style="mask-type:luminance" maskUnits="userSpaceOnUse" x="-301" y="-532" width="2004" height="1617">
<path d="M1311.97 -531.797L-300.198 121.037L89.847 1084.25L1702.01 431.413L1311.97 -531.797Z" fill="white"/>
</mask>
<g mask="url(#mask0_495_4943)">
<path d="M1797.75 446.254L31.4108 1161.52L-395.935 106.196L1370.4 -609.069L1797.75 446.254ZM32.1487 1160.54L1796.54 446.067L1369.66 -608.093L-394.726 106.383L32.1487 1160.54Z" fill="url(#paint0_linear_495_4943)"/>
<path d="M1786.07 418.825L20.7108 1133.7L20.9463 1134.28L1786.31 419.406L1786.07 418.825Z" fill="url(#paint1_linear_495_4943)"/>
<path d="M1775.12 391.78L9.75912 1106.65L9.99466 1107.23L1775.36 392.361L1775.12 391.78Z" fill="url(#paint2_linear_495_4943)"/>
<path d="M1764.17 364.736L-1.19211 1079.61L-0.956571 1080.19L1764.41 365.318L1764.17 364.736Z" fill="url(#paint3_linear_495_4943)"/>
<path d="M876.048 698.871C837.981 714.286 799.594 729.179 760.968 743.078C750.869 746.861 740.654 750.641 730.776 754.297C704.871 763.884 678.082 773.798 652.144 784.24L-11.9083 1053.14L-12.144 1052.56L651.911 783.657C677.874 773.204 704.672 763.287 730.591 753.695C740.468 750.04 750.681 746.261 760.788 742.474C857.986 707.498 953.777 666.185 1046.42 626.232C1060.91 619.979 1075.42 613.72 1089.97 607.472C1127.32 591.375 1163.85 576.402 1194.65 563.88L1753.22 337.69L1753.45 338.272L1194.88 564.462C1164.09 576.981 1127.58 591.949 1090.24 608.039C1075.69 614.288 1061.18 620.547 1046.69 626.799C990.831 650.889 933.817 675.478 876.048 698.871Z" fill="url(#paint4_linear_495_4943)"/>
<path d="M908.266 666.158C811.38 705.391 713.111 738.98 617.173 771.774C599.437 777.836 581.684 783.904 563.918 790.014C532.132 800.919 500.544 813.891 469.994 826.435C458.484 831.161 446.582 836.052 434.824 840.762L-22.8599 1026.1L-23.0955 1025.52L434.592 840.179C446.347 835.467 458.244 830.581 469.751 825.856C500.325 813.303 531.937 800.32 563.772 789.398C581.538 783.289 599.292 777.221 617.029 771.158C751.377 725.235 890.3 677.751 1023.54 615.403C1048.36 603.82 1073.11 591.914 1097.04 580.4C1157.18 551.464 1219.37 521.548 1284.59 495.979L1742.27 310.646L1742.5 311.227L1284.82 496.564C1219.64 522.114 1157.49 552.015 1097.38 580.936C1073.44 592.453 1048.69 604.361 1023.86 615.949C985.712 633.8 947.1 650.432 908.266 666.158Z" fill="url(#paint5_linear_495_4943)"/>
<path d="M892.015 654.931C777.737 701.208 652.92 743.022 513.088 782.156C483.707 790.157 453.703 800.774 423.895 813.709L-33.8121 999.054L-34.0476 998.472L423.64 813.135C453.501 800.171 483.587 789.53 513.043 781.51C780.443 706.674 992.928 622.025 1181.74 515.12C1189.31 511.138 1196.74 507.123 1203.92 503.241C1226.99 490.774 1248.79 478.998 1273.63 468.939L1731.32 283.602L1731.55 284.183L1273.86 469.52C1249.11 479.543 1227.36 491.297 1204.33 503.741C1197.14 507.625 1189.71 511.642 1182.15 515.616C1091.98 566.676 996.391 612.665 892.015 654.931Z" fill="url(#paint6_linear_495_4943)"/>
<path d="M861.3 652.137C739.935 701.283 621.145 737.657 507.601 760.411C498.535 762.739 489.644 764.801 481.046 766.794C458.154 772.101 436.531 777.112 412.923 786.672L-44.7637 972.009L-44.9993 971.428L412.688 786.09C436.423 776.479 458.109 771.452 481.067 766.13C489.657 764.139 498.539 762.081 507.627 759.747C745.344 712.107 994.912 609.108 1270.63 444.849C1326.54 416.503 1384.79 392.445 1444.52 368.256L1720.36 256.557L1720.6 257.139L1444.76 368.837C1385.06 393.013 1326.85 417.055 1271.05 445.342C1142.05 522.195 1021.45 584.258 902.392 635.051C888.667 640.907 874.966 646.603 861.3 652.137Z" fill="url(#paint7_linear_495_4943)"/>
<path d="M862.928 634.988C707.347 697.989 550.402 742.953 396.153 768.701C333.892 787.196 268.136 813.824 220.124 833.266L-55.7143 944.965L-55.9499 944.383L219.888 832.684C267.934 813.229 333.735 786.583 396.175 768.041C707.689 716.036 1020.14 589.461 1324.96 391.808C1355.42 372.229 1388.93 358.937 1421.34 346.078C1425.42 344.458 1429.51 342.84 1433.58 341.21L1709.41 229.512L1709.65 230.094L1433.81 341.792C1429.73 343.424 1425.65 345.044 1421.57 346.664C1389.23 359.488 1355.8 372.753 1325.48 392.242C1179.34 487.001 1028.79 566.601 877.996 628.828C872.979 630.898 867.946 632.956 862.928 634.988Z" fill="url(#paint8_linear_495_4943)"/>
<path d="M866.852 620.514C707.531 685.03 542.216 729.238 378.657 750.008C328.521 761.96 273.054 780.353 209.172 806.222L-66.6666 917.92L-66.9021 917.339L208.936 805.64C272.901 779.738 328.449 761.319 378.752 749.332C704.129 708.009 1036.42 573.895 1314.5 371.68C1347.55 348.43 1387.89 329.637 1423 314.318C1475.76 292.688 1523.72 273.229 1567.69 255.422L1698.46 202.468L1698.7 203.05L1567.93 256.004C1523.95 273.81 1475.99 293.268 1423.26 314.89C1388.25 330.166 1348 348.913 1315.08 372.073C1176.6 472.776 1024.66 556.609 866.852 620.514Z" fill="url(#paint9_linear_495_4943)"/>
<path d="M882.306 600.892C865.639 607.641 848.775 614.192 831.661 620.563C752.597 649.996 668.764 675.284 582.49 695.725C500.575 715.134 415.891 730.318 330.792 740.855C282.634 747.352 234.524 764.944 197.991 779.543C145.203 800.667 99.3562 819.211 53.1493 837.922L-77.6183 890.875L-77.8539 890.294L52.9145 837.34C99.1229 818.628 144.97 800.084 197.764 778.958C234.387 764.322 282.626 746.686 330.968 740.164C707.599 693.529 1044.03 562.307 1278.3 370.675C1287.66 364.071 1296.45 357.684 1304.95 351.508C1339.06 326.708 1368.52 305.289 1411.66 287.126L1687.51 175.423L1687.74 176.004L1411.91 287.703C1368.96 305.785 1339.57 327.152 1305.54 351.894C1297.04 358.074 1288.25 364.463 1278.91 371.042C1167.55 462.14 1034.3 539.343 882.306 600.892Z" fill="url(#paint10_linear_495_4943)"/>
<path d="M872.003 589.809C858.999 595.075 845.891 600.202 832.679 605.189C670.108 666.562 491.433 706.651 315.971 721.121C279.554 724.045 237.305 734.375 186.809 752.701C131.673 774.691 82.7651 794.451 42.1988 810.878L-88.5688 863.831L-88.8044 863.249L41.9633 810.296C82.5326 793.868 131.443 774.107 186.608 752.106C237.273 733.717 279.659 723.357 316.215 720.423C688.693 689.704 1041.55 552.262 1284.33 343.333C1298.2 332.886 1309.46 323.124 1320.36 313.682C1343.91 293.268 1364.25 275.636 1400.7 260.084L1676.56 148.378L1676.79 148.96L1400.96 260.659C1364.76 276.104 1344.5 293.661 1321.05 313.991C1310.13 323.448 1298.85 333.227 1284.98 343.675C1221.96 397.908 1150.61 447.996 1072.94 492.521C1010.05 528.572 942.616 561.214 872.003 589.809Z" fill="url(#paint11_linear_495_4943)"/>
<path d="M859.554 581.681C793.345 608.492 723.808 630.649 649.534 648.678C547.044 673.554 436.909 690.072 312.833 699.174C302.676 700.384 293.167 701.31 283.973 702.204C249.082 705.598 218.95 708.53 176.306 725.092L-99.5212 836.786L-99.7569 836.204L176.081 724.506C218.953 707.855 249.188 704.914 284.194 701.508C293.38 700.614 302.88 699.69 313.055 698.477C581.86 678.757 795.006 623.044 983.872 523.145C1086.26 469.945 1170.37 406.082 1251.72 344.321C1292.5 313.358 1334.67 281.34 1378.89 250.814C1425.49 218.203 1481.08 195.879 1534.84 174.286L1665.61 121.333L1665.84 121.916L1535.07 174.869C1481.4 196.419 1425.9 218.711 1379.46 251.218C1335.26 281.728 1293.11 313.735 1252.34 344.688C1170.94 406.489 1086.77 470.393 984.263 523.656C943.838 545.038 902.39 564.335 859.554 581.681Z" fill="url(#paint12_linear_495_4943)"/>
<path d="M838.237 567.887C750.538 603.402 661.29 630.931 572.661 649.795C475.863 670.398 380.139 680.572 288.146 680.036C274.697 681.377 263.262 681.716 252.201 682.046C225.816 682.83 203.029 683.508 165.353 698.048L-110.471 809.741L-110.707 809.159L165.131 697.46C203.086 682.813 225.992 682.132 252.516 681.343C263.552 681.015 274.965 680.676 288.436 679.337C467.398 680.377 657.156 640.237 838.644 566.745C1026.26 490.772 1205.05 379.182 1354.22 240.524C1399.19 197.455 1465.39 169.786 1523.9 147.237L1654.66 94.2884L1654.89 94.8701L1524.12 147.824C1465.75 170.321 1399.73 197.91 1354.95 240.796C1212.44 373.271 1039.43 484.045 854.629 561.149C849.176 563.425 843.702 565.675 838.237 567.887Z" fill="url(#paint13_linear_495_4943)"/>
<path d="M850.578 541.509C800.854 561.644 749.39 579.347 696.338 594.547C558.543 634.026 413.026 655.921 263.831 659.622C222.575 660.61 184.414 669.109 139.806 681.569C100.032 693.379 53.5462 711.844 9.3434 729.744L-121.424 782.697L-121.66 782.116L9.10863 729.162C53.3517 711.246 99.8821 692.764 139.743 680.928C184.479 668.433 222.747 659.911 264.151 658.92C484.482 653.455 809.096 605.257 1104.33 406.679C1154.26 373 1199.13 334.588 1242.53 297.441C1281.73 263.88 1322.27 229.176 1365.97 198.547C1414.94 164.22 1463.02 138.588 1512.96 120.189L1643.7 67.2454L1643.94 67.8271L1513.17 120.781C1402.17 161.685 1321.36 230.858 1243.21 297.756C1199.78 334.93 1154.87 373.369 1104.87 407.097C1026.65 459.712 941.533 504.677 850.578 541.509Z" fill="url(#paint14_linear_495_4943)"/>
<path d="M824.378 523.187C808.537 529.602 792.455 535.745 776.097 541.604C691.742 571.997 603.24 594.318 505.536 609.844C427.709 622.211 345.334 630.296 238.443 636.058C154.458 640.92 70.501 672.998 -1.60379 702.697L-132.377 755.652L-132.612 755.071L-1.84314 702.117C70.3778 672.382 154.495 640.233 238.723 635.357C406.869 626.293 588.324 608.589 775.928 540.997C1010.36 457.034 1190.29 313.68 1354.52 174.04C1398.31 138.201 1451.37 114.432 1501.97 93.1571L1632.75 40.1994L1632.99 40.7811L1502.22 93.7348C1451.74 114.957 1398.8 138.668 1355.19 174.366C1202.32 304.353 1035.8 437.574 824.378 523.187Z" fill="url(#paint15_linear_495_4943)"/>
<path d="M830.937 481.893C742.219 517.82 649.77 545.486 549.378 566.202C452.268 586.242 349.566 599.309 235.401 606.148C147.697 611.931 60.8467 644.53 -12.5461 675.649L-143.327 728.608L-143.563 728.026L-12.7945 675.072C60.7147 643.903 147.729 611.247 235.671 605.447C479.776 590.825 678.796 547.227 861.99 468.232C1014.36 402.498 1136.59 308.329 1254.8 217.26C1295.2 186.135 1336.97 153.951 1379.38 123.336C1410.89 100.301 1446.8 83.7986 1491.04 66.1065L1621.8 13.1543L1622.04 13.7359L1491.27 66.6897C1447.14 84.3366 1411.35 100.783 1379.97 123.721C1337.58 154.325 1295.81 186.502 1255.42 217.62C1137.14 308.748 1014.82 402.979 862.261 468.798C851.872 473.279 841.424 477.647 830.937 481.893Z" fill="url(#paint16_linear_495_4943)"/>
<path d="M785.197 445.869C782.524 446.952 779.867 448.019 777.194 449.083C611.499 514.016 443.402 541.199 280.837 567.487C239.849 574.115 197.466 580.969 155.748 588.325C100.234 598.518 45.4546 620.697 -7.52075 642.147C-12.8642 644.311 -18.1949 646.469 -23.5123 648.609L-154.278 701.562L-154.514 700.98L-23.7463 648.027C-18.4281 645.886 -13.0982 643.728 -7.75629 641.565C45.2997 620.083 100.162 597.87 155.849 587.645C197.582 580.286 239.972 573.432 280.965 566.802C443.443 540.529 611.454 513.359 776.973 448.496C987.251 364.75 1164.48 240.169 1328.06 119.747C1367.91 90.5494 1414.79 65.666 1480.08 39.0647L1610.85 -13.8897L1611.08 -13.3081L1480.32 39.6457C1415.16 66.1919 1368.39 91.0136 1328.66 120.128C1248.39 179.217 1161.22 241.9 1067.69 299.954C969.45 360.929 876.937 408.72 785.197 445.869Z" fill="url(#paint17_linear_495_4943)"/>
<path d="M784.682 367.954C720.313 394.02 652.869 418.249 581.492 440.991C436.346 487.238 287.75 523.129 161.535 552.138C95.4275 567.146 32.6926 593.429 -27.982 618.85L-34.4531 621.561L-165.231 674.518L-165.466 673.936L-34.6978 620.983L-28.2365 618.276C32.4982 592.828 95.3105 566.514 161.563 551.473C427.086 490.445 709.558 418.747 987.235 273.987C1059.64 236.902 1127.12 196.847 1192.38 158.108C1252.05 122.687 1313.75 86.0593 1378.42 52.2336C1406.03 38.8477 1429.71 27.9813 1469.13 12.0187L1599.9 -40.935L1600.13 -40.3534L1469.36 12.6004C1429.99 28.5448 1406.33 39.3977 1378.78 52.7563C1314.18 86.5488 1252.5 123.164 1192.85 158.574C1127.57 197.325 1060.06 237.395 987.617 274.502C923.02 308.178 855.728 339.184 784.682 367.954Z" fill="url(#paint18_linear_495_4943)"/>
<path d="M797.196 261.355C552.505 360.441 307.372 456.403 66.8294 550.568C29.4105 565.217 -8.00873 579.865 -45.4233 594.524L-176.182 647.474L-176.417 646.892L-45.649 593.939C-8.22489 579.277 29.194 564.628 66.6128 549.979C307.12 455.828 552.299 359.847 796.955 260.775C988.331 183.279 1179.36 103.905 1367.77 21.9581C1392.05 11.9216 1415.6 2.21627 1458.18 -15.0248L1588.95 -67.9785L1589.18 -67.3968L1458.41 -14.4431C1415.84 2.79545 1392.3 12.4999 1368.04 22.5292C1179.64 104.468 988.552 183.867 797.196 261.355Z" fill="url(#paint19_linear_495_4943)"/>
<path d="M8.6624 541.417C-0.981756 545.323 -10.7146 549.193 -20.5741 553.112C-32.2842 557.768 -44.3916 562.583 -56.3628 567.475L-187.133 620.429L-187.369 619.847L-56.6007 566.893C-44.6224 562.002 -32.5135 557.184 -20.7998 552.527C24.1054 534.673 66.5179 517.809 108.7 494.339C306.317 380.072 488.094 288.355 664.408 213.954C862.797 130.233 1055.3 67.7353 1252.94 22.8675C1292 14.5093 1326.43 2.83885 1354.95 -7.47536C1383.83 -17.4163 1408.19 -26.2617 1447.23 -42.0708L1577.99 -95.0246L1578.23 -94.4425L1447.46 -41.4887C1408.39 -25.6655 1384.01 -16.8114 1355.12 -6.86548C1326.54 3.46428 1292.05 15.1576 1252.9 23.5348C883.693 107.352 520.251 257.107 109.141 494.821C76.1218 513.193 42.9938 527.515 8.6624 541.417Z" fill="url(#paint20_linear_495_4943)"/>
<path d="M-29.2048 525.44C-41.9708 530.61 -54.7022 535.588 -67.3321 540.436L-198.085 593.384L-198.32 592.802L-67.5524 539.849C0.535175 513.708 71.8861 483.691 132.498 441.387C223.692 377.234 322.682 309.343 428.577 247.512C543.065 180.666 650.614 129.858 757.372 92.1886C879.418 48.6669 1001 27.4374 1118.57 6.90652C1190.55 -5.66218 1264.98 -18.6592 1339.86 -36.7039C1368.76 -43.6694 1398.47 -53.6653 1436.27 -69.114L1567.04 -122.069L1567.28 -121.487L1436.51 -68.5335C1398.67 -53.047 1368.84 -43.0301 1339.85 -36.0437C1264.93 -17.9876 1190.47 -4.98568 1118.46 7.58782C1000.96 28.1066 879.448 49.3231 757.536 92.7971C519.859 176.656 318.716 311.189 133.069 441.787C83.5634 476.339 26.9441 502.703 -29.2048 525.44Z" fill="url(#paint21_linear_495_4943)"/>
<path d="M1556.33 -148.531L1425.56 -95.577C1375.1 -77.1639 1317.94 -56.3064 1259 -50.7217C1000.27 -27.5816 784.325 8.36471 571.383 108.598C426.528 176.818 308.334 266.77 194.033 353.759C162.592 377.689 130.079 402.432 97.4039 426.436C52.923 459.423 0.110721 481.114 -50.9624 502.09C-59.9373 505.776 -69.2186 509.588 -78.2575 513.382L-209.036 566.34L-209.271 565.758L-78.5036 512.805C-69.4693 509.012 -60.185 505.199 -51.2063 501.511C-0.23044 480.575 52.4819 458.926 96.803 426.057C129.471 402.059 161.978 377.319 193.415 353.394C307.782 266.353 426.042 176.351 571.059 108.055C675.028 59.119 787.483 22.4412 914.84 -4.06177C1037.78 -29.6454 1157.92 -42.3576 1259.22 -51.4184C1317.96 -56.9834 1375.01 -77.8018 1425.35 -96.1696L1556.09 -149.112L1556.33 -148.531Z" fill="url(#paint22_linear_495_4943)"/>
<path d="M1399.85 -116.377C1307.36 -78.9195 1216.12 -73.3441 1127.74 -67.9403C1095.25 -65.9538 1061.65 -63.8987 1028.5 -60.2891C844.164 -39.7315 663.985 15.9316 492.966 105.143C383.835 161.746 298.051 231.052 215.091 298.076C171.212 333.526 125.838 370.185 77.2964 404.791C29.2607 438.744 -26.5329 461.81 -89.2298 486.345L-219.988 539.295L-220.224 538.713L-89.4555 485.759C-26.866 461.263 28.8365 438.241 76.7187 404.395C125.222 369.816 170.578 333.172 214.441 297.735C297.459 230.664 383.304 161.308 492.58 104.631C578.366 59.8797 667.8 23.0948 758.401 -4.70513C847.192 -31.9483 938.132 -50.8829 1028.7 -60.9837C1061.89 -64.5979 1095.5 -66.653 1128.01 -68.6409C1220.95 -74.3239 1317.06 -80.2068 1414.35 -123.193L1545.14 -176.158L1545.37 -175.576L1414.61 -122.622C1409.69 -120.449 1404.76 -118.366 1399.85 -116.377Z" fill="url(#paint23_linear_495_4943)"/>
<path d="M-45.8216 438.104C-59.8341 443.778 -73.9906 449.222 -88.0325 454.623C-92.0908 456.183 -96.1435 457.742 -100.185 459.303L-230.939 512.251L-231.174 511.669L-100.407 458.715C-96.351 457.149 -92.2982 455.59 -88.2393 454.029C-31.8538 432.343 26.4512 409.922 69.2663 374.931C89.068 359.521 109.11 343.77 128.493 328.535C220.155 256.494 314.938 181.999 417.141 117.926C472.178 83.4222 524.883 54.6275 578.271 29.8967C638.212 2.12886 697.46 -19.8393 759.403 -37.2661C883.632 -72.3607 999.804 -82.877 1112.15 -93.0468C1159.96 -97.3752 1209.4 -101.851 1258.89 -108.16C1301.68 -113.303 1350.3 -127.457 1403.4 -150.242L1534.19 -203.202L1534.43 -202.621L1403.66 -149.667C1350.43 -126.826 1301.65 -112.628 1258.7 -107.468C1209.2 -101.156 1159.75 -96.6793 1111.92 -92.3506C999.643 -82.1869 883.544 -71.6769 759.459 -36.6236C502.031 35.7995 312.463 184.796 129.13 328.887C109.746 344.122 89.7031 359.875 69.9123 375.275C37.5968 401.685 -3.43974 420.942 -45.8216 438.104Z" fill="url(#paint24_linear_495_4943)"/>
<path d="M1369.28 -166.877C1318.61 -146.356 1277.42 -134.919 1238.13 -130.282C1200.58 -125.707 1162.28 -121.646 1125.24 -117.719C963.361 -100.551 795.966 -82.7991 629.464 -16.4758C465.54 48.749 307.362 149.912 131.643 301.88C120.743 310.58 112.43 318.433 104.391 326.027C86.2678 343.15 70.6142 357.937 33.962 373.501L-241.89 485.205L-242.125 484.623L33.7128 372.925C70.0797 357.483 85.6424 342.78 103.662 325.756C111.72 318.142 120.053 310.27 130.976 301.552C211.841 231.617 287.052 173.865 360.887 125.012C450.929 65.4355 538.733 18.9713 629.239 -17.0619C795.957 -83.4713 963.463 -101.235 1125.45 -118.414C1162.48 -122.341 1200.78 -126.402 1238.32 -130.975C1283.33 -136.287 1330.87 -150.573 1392.45 -177.286L1523.24 -230.248L1523.47 -229.666L1392.7 -176.712C1384.67 -173.226 1376.87 -169.948 1369.28 -166.877Z" fill="url(#paint25_linear_495_4943)"/>
<path d="M1365.17 -196.985C1298.99 -170.183 1234 -147.119 1168.96 -144.264C795.471 -132.866 399.628 26.0796 135.89 270.549C126.848 277.517 118.852 284.081 111.119 290.429C85.782 311.225 63.9001 329.185 23.0081 346.457L-252.842 458.16L-253.078 457.579L22.7604 345.88C63.4158 328.708 85.2162 310.815 110.458 290.095C118.201 283.74 126.206 277.17 135.217 270.229C264.453 150.431 427.236 48.8882 606.163 -23.5669C607.705 -24.1913 609.231 -24.8067 610.776 -25.4265C791.508 -97.9959 984.628 -139.33 1169.26 -144.965C1239.47 -148.047 1309.74 -174.806 1381.51 -204.336L1512.29 -257.292L1512.52 -256.71L1381.75 -203.756C1376.22 -201.48 1370.69 -199.218 1365.17 -196.985Z" fill="url(#paint26_linear_495_4943)"/>
<path d="M1501.57 -283.754L1225.73 -172.055C1189.66 -158.267 1164.36 -157.464 1135.06 -156.535C1120.45 -156.072 1105.34 -155.593 1087.44 -153.481C763.79 -136.237 400.933 14.937 140.424 241.051C137.284 243.345 134.242 245.572 131.236 247.772C94.0469 274.997 61.929 298.509 12.0537 319.414L-263.794 431.116L-264.03 430.535L11.8083 318.836C61.4869 298.014 93.5333 274.554 130.64 247.39C133.646 245.19 136.689 242.962 139.782 240.705C265.268 131.784 418.415 37.5044 582.619 -31.9046C751.489 -103.286 926.143 -145.572 1087.67 -154.177C1105.59 -156.293 1120.73 -156.772 1135.37 -157.238C1164.53 -158.162 1189.72 -158.961 1225.51 -172.644L1501.33 -284.336L1501.57 -283.754Z" fill="url(#paint27_linear_495_4943)"/>
<path d="M1490.62 -310.799L1214.78 -199.1C1173.26 -183.005 1139.92 -178.877 1101.31 -174.098C1089.32 -172.614 1076.92 -171.079 1063.64 -169.102C756.292 -143.52 414.699 -0.328757 126.406 223.762C94.3971 248.704 54.7499 270.348 1.72294 291.82C1.35437 291.97 0.98956 292.117 0.620777 292.266C-52.977 314.245 -100.202 333.392 -143.977 351.118L-274.745 404.072L-274.981 403.49L-144.213 350.536C-100.44 332.81 -53.2171 313.665 0.382062 291.685C0.74721 291.539 1.1173 291.389 1.48132 291.241C54.3699 269.824 93.8826 248.257 125.776 223.406C192.902 171.229 264.138 122.572 337.507 78.787C413.073 33.6919 491.091 -6.34022 569.398 -40.1966C737.482 -112.873 903.848 -156.479 1063.84 -169.795C1077.09 -171.768 1089.5 -173.304 1101.5 -174.79C1140 -179.555 1173.25 -183.672 1214.56 -199.687L1490.38 -311.381L1490.62 -310.799Z" fill="url(#paint28_linear_495_4943)"/>
<path d="M-6.54838 263.991C-7.65947 264.441 -8.76256 264.887 -9.86014 265.328L-285.698 377.027L-285.933 376.445L-10.0949 264.746C38.5199 245.146 101.203 218.014 154.394 182.013C168.824 172.581 183.421 162.983 197.537 153.702C326.864 68.6682 449.011 -11.6591 596.42 -70.1214C725.442 -122.368 851.739 -147.51 985.451 -174.13C1033.78 -183.752 1083.76 -193.701 1133.47 -204.987C1149.51 -208.853 1163.89 -213.768 1179.11 -218.972C1187.1 -221.705 1195.37 -224.53 1203.9 -227.19C1258.38 -248.953 1307.65 -268.866 1348.66 -285.472L1479.43 -338.426L1479.67 -337.844L1348.9 -284.89C1307.89 -268.284 1258.61 -248.369 1204.06 -226.582C1195.49 -223.906 1187.24 -221.085 1179.25 -218.356C1163.99 -213.139 1149.58 -208.21 1133.45 -204.324C1083.71 -193.032 1033.72 -183.081 985.38 -173.456C851.748 -146.854 725.526 -121.725 596.65 -69.5381C449.4 -11.0992 327.322 69.1434 198.069 154.129C183.953 163.41 169.355 173.009 154.932 182.435C102.824 217.703 41.6815 244.461 -6.54838 263.991Z" fill="url(#paint29_linear_495_4943)"/>
<path d="M1468.71 -364.888L1337.95 -311.934C1298.05 -295.778 1248.39 -275.671 1192.97 -253.435L1184.37 -250.08C1141.06 -233.15 1096.26 -215.643 1050.6 -207.339C729.67 -152.879 417.808 -25.2937 148.713 161.627C94.0137 191.17 32.5303 216.685 -20.8105 238.285L-296.649 349.983L-296.884 349.402L-21.046 237.703C32.2515 216.121 93.6811 190.628 148.226 161.175C280.876 69.0264 425.519 -9.45189 578.06 -72.033C581.29 -73.3579 584.534 -74.6804 587.77 -75.9908C738.611 -137.073 894.295 -181.477 1050.7 -208.019C1096.2 -216.293 1140.92 -233.769 1184.16 -250.668L1192.74 -254.022C1248.16 -276.253 1297.81 -296.359 1337.71 -312.515L1468.48 -365.469L1468.71 -364.888L1468.71 -364.888Z" fill="url(#paint30_linear_495_4943)"/>
<path d="M1457.76 -391.933L1181.92 -280.234C1129.32 -258.932 1067.92 -234.655 1004.84 -216.132C705.859 -151.83 446.484 -49.0094 233.87 89.4926C224.468 94.992 215.809 100.574 207.433 105.973C189.398 117.599 172.364 128.58 150.087 137.601L-307.6 322.938L-307.836 322.356L149.851 137.019C171.977 128.059 188.948 117.12 206.913 105.538C215.303 100.131 223.979 94.5379 233.377 89.0408C343.544 17.2751 468.388 -45.8134 604.44 -98.4567C728.823 -146.587 863.535 -186.399 1004.83 -216.785C1067.77 -235.272 1129.12 -259.53 1181.69 -280.816L1457.53 -392.515L1457.76 -391.933Z" fill="url(#paint31_linear_495_4943)"/>
<path d="M150.711 106.256C146.741 107.864 142.85 109.311 139.085 110.575L-318.552 295.894L-318.787 295.312L138.9 109.975C153.819 104.962 170.718 97.0759 186.532 87.7453C289.106 32.9846 410.459 -30.1753 533.038 -83.5551C660.829 -139.205 778.199 -179.258 891.862 -206.007C902.308 -208.948 912.554 -211.532 922.465 -214.03C945.033 -219.72 966.351 -225.095 988.889 -234.222L1446.58 -419.559L1446.81 -418.977L989.125 -233.64C966.474 -224.468 945.102 -219.08 922.475 -213.374C912.576 -210.879 902.34 -208.298 891.881 -205.353C636.114 -145.16 403.404 -27.3159 186.967 88.2315C175.073 95.2491 162.545 101.465 150.711 106.256Z" fill="url(#paint32_linear_495_4943)"/>
<path d="M198.522 55.792C186.663 60.5942 174.664 65.2643 162.428 70.0266C151.236 74.3819 139.663 78.8861 128.181 83.5127L-329.503 268.849L-329.739 268.267L127.948 82.9301C139.44 78.2992 151.017 73.7935 162.215 69.4357C197.838 55.5703 231.489 42.475 265.299 24.6998C469.102 -85.1227 672.532 -155.499 887.91 -230.011C917.383 -240.208 947.859 -250.751 977.976 -261.281L1435.62 -446.604L1435.86 -446.022L978.172 -260.685C948.012 -250.138 917.534 -239.594 888.059 -229.398C672.752 -154.91 469.386 -84.5548 265.699 25.2048C243.425 36.9154 221.235 46.5944 198.522 55.792Z" fill="url(#paint33_linear_495_4943)"/>
<path d="M958.138 -284.042C885.636 -254.683 811.661 -226.417 740.023 -199.044C601.983 -146.299 459.245 -91.7574 322.912 -27.7788C288.699 -13.0883 254.184 0.947971 220.803 14.5218L218.118 15.6138L-340.454 241.804L-340.69 241.222L220.564 13.9414C253.938 0.370652 288.445 -13.6626 322.615 -28.3346C458.981 -92.3273 601.749 -146.881 739.819 -199.638C814.442 -228.153 891.584 -257.639 966.984 -288.311L1424.67 -473.648L1424.91 -473.067L967.22 -287.73C964.197 -286.5 961.167 -285.269 958.138 -284.042Z" fill="url(#paint34_linear_495_4943)"/>
<path d="M1413.96 -500.111L749.902 -231.207C641.55 -187.921 530.958 -143.139 421.198 -98.1047L-351.406 214.759L-351.641 214.178L420.959 -98.6853C530.721 -143.721 641.316 -188.505 749.671 -231.791L1413.72 -500.693L1413.96 -500.111Z" fill="url(#paint35_linear_495_4943)"/>
<path d="M1402.77 -527.738L-362.593 187.133L-362.357 187.715L1403.01 -527.156L1402.77 -527.738Z" fill="url(#paint36_linear_495_4943)"/>
<path d="M1391.82 -554.783L-373.544 160.088L-373.309 160.67L1392.05 -554.201L1391.82 -554.783Z" fill="url(#paint37_linear_495_4943)"/>
<path d="M1380.87 -581.827L-384.496 133.044L-384.26 133.625L1381.1 -581.245L1380.87 -581.827Z" fill="url(#paint38_linear_495_4943)"/>
<path d="M874.826 819.646L873.852 820.04L842.214 741.911L839.725 736.303C825.344 703.861 810.473 670.315 778.246 648.85C658.987 570.156 575.863 466.129 531.182 339.659C490.746 225.21 481.227 91.0476 502.886 -59.1007C507.292 -86.8298 497.554 -109.965 487.244 -134.459C484.221 -141.641 481.094 -149.069 478.377 -156.579L446.742 -234.702L447.715 -235.096L479.354 -156.966C482.07 -149.459 485.195 -142.036 488.216 -134.857C498.548 -110.31 508.307 -87.1256 503.884 -59.2775C457.914 259.391 550.495 497.444 779.058 648.265C811.395 669.803 826.29 703.403 840.694 735.897L843.185 741.511L874.826 819.646Z" fill="url(#paint39_linear_495_4943)"/>
<path d="M835.253 836.37L834.279 836.764L802.641 758.635C785.982 711.535 753.343 676.085 705.625 653.263C640.949 622.448 585.61 584.601 541.145 540.778C497.134 497.402 463.683 448.085 441.721 394.198C419.701 340.175 409.201 281.479 410.507 219.743C411.834 157.069 425.343 91.087 450.66 23.6287C475.645 -42.4128 457.452 -98.4238 438.811 -139.842L407.17 -217.978L408.144 -218.372L439.781 -140.243C458.453 -98.7593 476.675 -42.6438 451.627 23.5645C350.417 293.244 445.647 528.411 706.367 652.638C754.206 675.518 786.925 711.049 803.619 758.248L835.253 836.37L835.253 836.37Z" fill="url(#paint40_linear_495_4943)"/>
<path d="M794.582 852.14L793.608 852.534L761.97 774.405C747.537 734.753 725.925 708.726 693.953 692.491C684.157 687.122 674.352 681.794 664.562 676.474C555.715 617.325 452.906 561.456 393.128 470.256C357.475 413.948 343.887 346.137 351.585 262.946C358.447 188.783 381.211 109.507 403.226 32.8408C407.999 16.2186 412.935 -0.969763 417.631 -17.836C428.383 -56.2386 414.368 -87.6727 399.53 -120.951L398.138 -124.072L366.498 -202.206L367.472 -202.601L399.11 -124.472L400.497 -121.358C415.366 -88.011 429.41 -56.513 418.614 -17.9513C413.917 -1.08291 408.981 16.1066 404.208 32.7303C360.203 185.978 314.699 344.443 394.069 469.799C453.786 560.906 556.542 616.745 665.331 675.864C675.122 681.183 684.928 686.513 694.716 691.877C726.795 708.166 748.478 734.267 762.946 774.017L794.582 852.14Z" fill="url(#paint41_linear_495_4943)"/>
<path d="M754.46 868.387L753.486 868.782L721.849 790.652C709.124 758.279 687.513 718.527 632.875 698.297C554.875 671.046 488.969 635.833 436.989 593.639C385.266 551.652 347.158 502.614 323.723 447.886C300.123 392.772 291.327 331.692 297.58 266.343C303.949 199.788 325.973 128.454 363.041 54.3226C394.873 -9.60315 379.438 -61.3861 358.018 -107.823L326.377 -185.96L327.351 -186.354L358.989 -108.225C380.448 -61.7015 395.909 -9.80295 363.98 54.322C215.428 351.408 313.683 585.891 633.553 697.646C688.394 717.951 710.068 757.806 722.824 790.26L754.46 868.387Z" fill="url(#paint42_linear_495_4943)"/>
<path d="M714.338 884.634L713.365 885.029L681.727 806.899C665.945 756.026 635.15 724.698 584.806 708.293C504.284 680.851 437.513 644.248 386.345 599.498C336.825 556.19 301.415 504.833 281.094 446.855C261.269 390.289 255.658 327.039 264.419 258.861C273.053 191.661 295.678 119.376 331.665 44.0133C356.609 -5.92252 338.333 -46.3507 320.659 -85.4481C319.735 -87.4914 318.813 -89.5342 317.895 -91.5774L286.255 -169.713L287.228 -170.107L318.866 -91.978C319.781 -89.9416 320.704 -87.8996 321.627 -85.8559C339.342 -46.6688 357.66 -6.14776 332.605 44.0071C181.892 359.623 274.057 601.509 585.469 707.636C635.987 724.098 666.885 755.519 682.705 806.52L714.338 884.634Z" fill="url(#paint43_linear_495_4943)"/>
<path d="M674.217 900.881L673.244 901.275L641.606 823.146C622.705 751.447 544.853 713.703 469.564 677.202C453.825 669.573 437.553 661.683 422.111 653.62C315.471 598.568 252.675 515.33 235.467 406.223C227.692 356.916 229.344 302.157 240.382 243.467C250.751 188.33 269.469 129.273 296.015 67.9372C305.782 45.7961 307.996 24.8283 302.599 5.613C299.297 -20.6818 288.972 -47.6815 277.773 -75.337L246.135 -153.466L247.108 -153.86L278.746 -75.7317C289.955 -48.0517 300.289 -21.0276 303.593 5.28571C309.013 24.5726 306.786 45.6496 296.97 67.9031C178.318 342.043 223.031 549.836 422.871 653.005C438.305 661.064 454.573 668.952 470.308 676.579C545.694 713.127 623.647 750.919 642.587 822.775L674.217 900.881Z" fill="url(#paint44_linear_495_4943)"/>
<path d="M634.096 917.128L633.122 917.522L601.484 839.393C586.643 796.696 569.211 756.775 519.53 737.42C380.089 678.708 281.429 591.838 234.212 486.197C210.219 432.52 199.605 374.365 202.664 313.349C205.819 250.414 223.548 184.393 255.357 117.121C258.18 107.682 261.616 99.1467 264.938 90.8922C273.559 69.4799 281.004 50.9876 272.746 27.5767L206.013 -137.219L206.987 -137.613L273.723 27.1902C282.035 50.7594 274.558 69.3338 265.9 90.8412C262.582 99.0828 259.152 107.604 256.32 117.061C130.732 382.669 229.398 614.322 520.236 736.78C570.112 756.211 587.592 796.223 602.462 839.007L634.096 917.128Z" fill="url(#paint45_linear_495_4943)"/>
<path d="M593.973 933.376L592.999 933.77L526.263 768.966C516.491 748.161 497.868 740.807 476.303 732.292C465.611 728.07 454.555 723.705 443.435 717.305C324.171 666.457 240.983 584.538 202.899 480.423C165.801 379.003 172.696 261.044 222.839 139.299C224.479 132.868 226.245 126.663 227.953 120.662C235.616 93.7384 242.234 70.4861 232.623 43.8256L165.889 -120.972L166.863 -121.366L233.599 43.4377C243.258 70.2285 236.62 93.548 228.935 120.55C227.228 126.547 225.463 132.749 223.812 139.212C119.321 392.919 203.768 614.178 444.185 716.685C455.298 723.078 466.332 727.435 477.003 731.648C498.671 740.204 517.383 747.593 527.232 768.562L593.973 933.376Z" fill="url(#paint46_linear_495_4943)"/>
<path d="M553.851 949.623L552.877 950.017L486.141 785.213C475.382 761.655 455.114 750.264 431.644 737.075C423.7 732.61 415.485 727.994 407.151 722.631C289.923 667.443 213.346 583.269 179.586 472.466C164.1 421.643 157.856 365.295 161.026 304.988C164.055 247.358 175.678 185.851 195.57 122.179C203.272 98.3046 197.136 75.2508 191.851 59.9859C179.15 27.2844 167.31 -2.13267 157.404 -26.5957L125.766 -104.725L126.74 -105.119L158.378 -26.9895C168.284 -2.52553 180.125 26.8925 192.828 59.6037C198.136 74.9304 204.292 98.075 196.548 122.084C108.653 403.408 183.722 616.471 407.924 722.024C416.276 727.396 424.484 732.008 432.421 736.469C455.962 749.699 476.292 761.125 487.111 784.812L553.85 949.623L553.851 949.623Z" fill="url(#paint47_linear_495_4943)"/>
<path d="M513.729 965.869L512.755 966.264L446.019 801.46C432.901 771.858 408.281 753.871 379.774 733.042C377.463 731.354 375.127 729.648 372.769 727.914C293.284 680.272 232.699 623.85 192.717 560.232C149.441 491.374 131.158 415.127 138.373 333.608C140.621 306.497 145.585 278.72 150.387 251.857C161.586 189.199 172.164 130.016 151.928 76.3014C138.587 42.2587 126.275 11.8529 117.284 -10.3485L85.6467 -88.4775L86.6202 -88.8717L118.258 -10.7431C127.248 11.4587 139.561 41.8658 152.904 75.9131C173.18 129.731 162.592 188.972 151.381 251.692C146.582 278.543 141.62 306.309 139.374 333.399C121.758 532.397 257.013 657.458 373.581 727.329C375.959 729.076 378.295 730.783 380.605 732.47C409.164 753.336 433.827 771.355 446.991 801.06L513.729 965.869Z" fill="url(#paint48_linear_495_4943)"/>
<path d="M473.608 982.116L472.635 982.511L440.997 904.381C430.297 877.958 418.749 849.523 405.583 818.004C396.469 791.43 381.325 770.185 361.784 756.556C262.987 688.675 193.007 607.138 153.789 514.211C113.183 417.988 106.679 311.869 134.459 198.8C134.898 165.316 127.64 130.551 112.261 92.5726L45.5247 -72.2309L46.4983 -72.6251L113.234 92.1784C128.633 130.205 135.901 165.02 135.454 198.614C81.0568 420.04 161.73 617.963 362.604 755.976C382.224 769.661 397.423 790.974 406.56 817.617C419.722 849.126 431.27 877.562 441.971 903.986L473.609 982.116L473.608 982.116Z" fill="url(#paint49_linear_495_4943)"/>
<path d="M433.487 998.363L432.513 998.757L365.777 833.954C350.324 795.792 331.493 764.921 308.212 739.577C223.597 678.309 163.338 600.669 129.146 508.843C96.7126 421.74 88.1631 323.4 103.738 216.554C99.6332 179.016 85.8776 142.747 72.1391 108.82L5.40314 -55.984L6.37666 -56.3782L73.1126 108.425C86.8611 142.377 100.628 178.675 104.735 216.318C72.4168 438.095 143.077 618.828 309.076 739.034C332.425 764.445 351.279 795.354 366.75 833.559L433.487 998.363Z" fill="url(#paint50_linear_495_4943)"/>
<path d="M393.363 1014.61L392.39 1015.01L325.654 850.202C313.316 819.733 297.961 781.814 274.655 748.434C206.163 681.979 154.806 613.029 122.038 543.527C84.4741 463.855 69.7207 380.237 78.1893 294.993C78.1005 288.166 78.6434 281.417 79.1678 274.892C80.3191 260.567 81.4067 247.037 76.0122 233.716L-34.7202 -39.7363L-33.7466 -40.1306L76.9857 233.321C82.4148 246.728 81.3227 260.306 80.168 274.681C79.644 281.197 79.1028 287.935 79.1908 294.767C63.1781 455.954 127.412 604.178 275.562 747.935C298.919 781.381 314.282 819.322 326.627 849.808L393.363 1014.61Z" fill="url(#paint51_linear_495_4943)"/>
<path d="M353.242 1030.86L352.268 1031.25L241.536 757.8C235.704 743.399 225.94 732.122 215.602 720.182C212.016 716.04 208.308 711.756 204.751 707.309C153.008 658.019 115.241 595.737 89.3114 516.922C66.2167 446.726 54.4987 370.435 43.1673 296.656C40.8109 281.317 38.3748 265.456 35.8781 249.921L-74.8426 -23.4891L-73.8691 -23.8833L36.8633 249.569C39.3719 265.146 41.8082 281.008 44.1646 296.347C66.8618 444.13 90.3322 596.943 205.648 706.798C209.22 711.261 212.925 715.541 216.509 719.68C226.868 731.646 236.653 742.947 242.509 757.407L353.241 1030.86L353.242 1030.86Z" fill="url(#paint52_linear_495_4943)"/>
<path d="M313.12 1047.1L312.146 1047.5L201.414 774.047C185.72 735.709 162.168 699.821 139.391 665.115C122.125 638.804 104.271 611.599 89.9684 583.518C58.531 519.485 44.0373 448.935 30.0194 380.708C26.7127 364.61 23.2932 347.965 19.6984 331.627C13.8088 312.041 6.47523 287.648 -4.22501 266.222L-114.964 -7.24284L-113.99 -7.63707L-3.25776 265.815C7.45196 287.255 14.7901 311.666 20.6865 331.28C24.2853 347.634 27.7054 364.28 31.0124 380.379C45.0251 448.583 59.5148 519.11 90.929 583.097C105.221 611.156 123.07 638.352 140.33 664.654C163.116 699.377 186.679 735.28 202.387 773.653L313.119 1047.11L313.12 1047.1Z" fill="url(#paint53_linear_495_4943)"/>
<path d="M272.999 1063.35L272.025 1063.75L161.293 790.294C143.819 748.115 123.511 706.092 103.872 665.452C64.0459 583.042 22.8658 497.826 2.80629 406.308C-4.37841 382.601 -13.1267 359.877 -19.9447 342.73L-155.084 9.00429L-154.111 8.61007L-18.9706 342.337C-12.1487 359.492 -3.39753 382.225 3.79535 405.96C23.8482 497.449 65.0198 582.644 104.836 665.035C124.477 705.68 144.788 747.708 162.266 789.899L272.999 1063.35Z" fill="url(#paint54_linear_495_4943)"/>
<path d="M232.877 1079.6L231.903 1079.99L96.7628 746.266C88.4098 725.671 79.878 704.615 71.2228 683.254C45.7165 627.24 23.1254 569.068 1.27781 512.811C-10.3178 482.953 -22.3082 452.078 -34.5522 422.003L-195.207 25.2516L-194.233 24.857L-33.5788 421.609C-21.333 451.686 -9.34296 482.562 2.25336 512.422C24.0997 568.674 46.6892 626.842 72.1933 682.853C80.8525 704.221 89.3834 725.277 97.7373 745.872L232.877 1079.6Z" fill="url(#paint55_linear_495_4943)"/>
<path d="M-234.355 41.1044L-235.329 41.4986L191.781 1096.24L192.755 1095.85L-234.355 41.1044Z" fill="url(#paint56_linear_495_4943)"/>
<path d="M-274.477 57.3513L-275.451 57.7459L151.659 1112.49L152.633 1112.09L-274.477 57.3513Z" fill="url(#paint57_linear_495_4943)"/>
<path d="M-314.598 73.5983L-315.573 73.9928L111.537 1128.73L112.512 1128.34L-314.598 73.5983Z" fill="url(#paint58_linear_495_4943)"/>
<path d="M-354.721 89.8456L-355.694 90.2398L71.4155 1144.98L72.3891 1144.59L-354.721 89.8456Z" fill="url(#paint59_linear_495_4943)"/>
</g>
</g>
<defs>
<linearGradient id="paint0_linear_495_4943" x1="507.257" y1="1235.36" x2="1640.53" y2="193.542" gradientUnits="userSpaceOnUse">
<stop stop-color="#D34AE8"/>
<stop offset="0.28" stop-color="#ED74FF"/>
<stop offset="0.54" stop-color="#F08AFF"/>
<stop offset="0.8" stop-color="#E851FF"/>
<stop offset="1" stop-color="#D34AE8"/>
</linearGradient>
<linearGradient id="paint1_linear_495_4943" x1="403.907" y1="979.347" x2="403.003" y2="977.105" gradientUnits="userSpaceOnUse">
<stop stop-color="#D34AE8"/>
<stop offset="0.28" stop-color="#ED74FF"/>
<stop offset="0.54" stop-color="#F08AFF"/>
<stop offset="0.8" stop-color="#E851FF"/>
<stop offset="1" stop-color="#D34AE8"/>
</linearGradient>
<linearGradient id="paint2_linear_495_4943" x1="392.955" y1="952.302" x2="392.051" y2="950.06" gradientUnits="userSpaceOnUse">
<stop stop-color="#D34AE8"/>
<stop offset="0.28" stop-color="#ED74FF"/>
<stop offset="0.54" stop-color="#F08AFF"/>
<stop offset="0.8" stop-color="#E851FF"/>
<stop offset="1" stop-color="#D34AE8"/>
</linearGradient>
<linearGradient id="paint3_linear_495_4943" x1="382.004" y1="925.258" x2="381.1" y2="923.016" gradientUnits="userSpaceOnUse">
<stop stop-color="#D34AE8"/>
<stop offset="0.28" stop-color="#ED74FF"/>
<stop offset="0.54" stop-color="#F08AFF"/>
<stop offset="0.8" stop-color="#E851FF"/>
<stop offset="1" stop-color="#D34AE8"/>
</linearGradient>
<linearGradient id="paint4_linear_495_4943" x1="373.296" y1="903.754" x2="365.544" y2="883.872" gradientUnits="userSpaceOnUse">
<stop stop-color="#D34AE8"/>
<stop offset="0.28" stop-color="#ED74FF"/>
<stop offset="0.54" stop-color="#F08AFF"/>
<stop offset="0.8" stop-color="#E851FF"/>
<stop offset="1" stop-color="#D34AE8"/>
</linearGradient>
<linearGradient id="paint5_linear_495_4943" x1="367.36" y1="889.094" x2="345.627" y2="828.757" gradientUnits="userSpaceOnUse">
<stop stop-color="#D34AE8"/>
<stop offset="0.28" stop-color="#ED74FF"/>
<stop offset="0.54" stop-color="#F08AFF"/>
<stop offset="0.8" stop-color="#E851FF"/>
<stop offset="1" stop-color="#D34AE8"/>
</linearGradient>
<linearGradient id="paint6_linear_495_4943" x1="362.2" y1="876.354" x2="327.112" y2="769.032" gradientUnits="userSpaceOnUse">
<stop stop-color="#D34AE8"/>
<stop offset="0.28" stop-color="#ED74FF"/>
<stop offset="0.54" stop-color="#F08AFF"/>
<stop offset="0.8" stop-color="#E851FF"/>
<stop offset="1" stop-color="#D34AE8"/>
</linearGradient>
<linearGradient id="paint7_linear_495_4943" x1="358.109" y1="866.252" x2="311.047" y2="703.48" gradientUnits="userSpaceOnUse">
<stop stop-color="#D34AE8"/>
<stop offset="0.28" stop-color="#ED74FF"/>
<stop offset="0.54" stop-color="#F08AFF"/>
<stop offset="0.8" stop-color="#E851FF"/>
<stop offset="1" stop-color="#D34AE8"/>
</linearGradient>
<linearGradient id="paint8_linear_495_4943" x1="353.519" y1="854.914" x2="298.707" y2="639.304" gradientUnits="userSpaceOnUse">
<stop stop-color="#D34AE8"/>
<stop offset="0.28" stop-color="#ED74FF"/>
<stop offset="0.54" stop-color="#F08AFF"/>
<stop offset="0.8" stop-color="#E851FF"/>
<stop offset="1" stop-color="#D34AE8"/>
</linearGradient>
<linearGradient id="paint9_linear_495_4943" x1="350.425" y1="847.276" x2="290.866" y2="567.718" gradientUnits="userSpaceOnUse">
<stop stop-color="#D34AE8"/>
<stop offset="0.28" stop-color="#ED74FF"/>
<stop offset="0.54" stop-color="#F08AFF"/>
<stop offset="0.8" stop-color="#E851FF"/>
<stop offset="1" stop-color="#D34AE8"/>
</linearGradient>
<linearGradient id="paint10_linear_495_4943" x1="347.144" y1="839.172" x2="287.762" y2="497.351" gradientUnits="userSpaceOnUse">
<stop stop-color="#D34AE8"/>
<stop offset="0.28" stop-color="#ED74FF"/>
<stop offset="0.54" stop-color="#F08AFF"/>
<stop offset="0.8" stop-color="#E851FF"/>
<stop offset="1" stop-color="#D34AE8"/>
</linearGradient>
<linearGradient id="paint11_linear_495_4943" x1="343.062" y1="829.09" x2="287.75" y2="432.507" gradientUnits="userSpaceOnUse">
<stop stop-color="#D34AE8"/>
<stop offset="0.28" stop-color="#ED74FF"/>
<stop offset="0.54" stop-color="#F08AFF"/>
<stop offset="0.8" stop-color="#E851FF"/>
<stop offset="1" stop-color="#D34AE8"/>
</linearGradient>
<linearGradient id="paint12_linear_495_4943" x1="339.865" y1="821.197" x2="293.355" y2="364.236" gradientUnits="userSpaceOnUse">
<stop stop-color="#D34AE8"/>
<stop offset="0.28" stop-color="#ED74FF"/>
<stop offset="0.54" stop-color="#F08AFF"/>
<stop offset="0.8" stop-color="#E851FF"/>
<stop offset="1" stop-color="#D34AE8"/>
</linearGradient>
<linearGradient id="paint13_linear_495_4943" x1="332.768" y1="803.667" x2="292.331" y2="316.816" gradientUnits="userSpaceOnUse">
<stop stop-color="#D34AE8"/>
<stop offset="0.28" stop-color="#ED74FF"/>
<stop offset="0.54" stop-color="#F08AFF"/>
<stop offset="0.8" stop-color="#E851FF"/>
<stop offset="1" stop-color="#D34AE8"/>
</linearGradient>
<linearGradient id="paint14_linear_495_4943" x1="326.09" y1="787.182" x2="293.385" y2="268.586" gradientUnits="userSpaceOnUse">
<stop stop-color="#D34AE8"/>
<stop offset="0.28" stop-color="#ED74FF"/>
<stop offset="0.54" stop-color="#F08AFF"/>
<stop offset="0.8" stop-color="#E851FF"/>
<stop offset="1" stop-color="#D34AE8"/>
</linearGradient>
<linearGradient id="paint15_linear_495_4943" x1="316.198" y1="762.755" x2="285.412" y2="237.041" gradientUnits="userSpaceOnUse">
<stop stop-color="#D34AE8"/>
<stop offset="0.28" stop-color="#ED74FF"/>
<stop offset="0.54" stop-color="#F08AFF"/>
<stop offset="0.8" stop-color="#E851FF"/>
<stop offset="1" stop-color="#D34AE8"/>
</linearGradient>
<linearGradient id="paint16_linear_495_4943" x1="302.235" y1="728.27" x2="265.844" y2="224.122" gradientUnits="userSpaceOnUse">
<stop stop-color="#D34AE8"/>
<stop offset="0.28" stop-color="#ED74FF"/>
<stop offset="0.54" stop-color="#F08AFF"/>
<stop offset="0.8" stop-color="#E851FF"/>
<stop offset="1" stop-color="#D34AE8"/>
</linearGradient>
<linearGradient id="paint17_linear_495_4943" x1="281.495" y1="677.053" x2="230.341" y2="248.039" gradientUnits="userSpaceOnUse">
<stop stop-color="#D34AE8"/>
<stop offset="0.28" stop-color="#ED74FF"/>
<stop offset="0.54" stop-color="#F08AFF"/>
<stop offset="0.8" stop-color="#E851FF"/>
<stop offset="1" stop-color="#D34AE8"/>
</linearGradient>
<linearGradient id="paint18_linear_495_4943" x1="250.835" y1="601.341" x2="191.546" y2="328.64" gradientUnits="userSpaceOnUse">
<stop stop-color="#D34AE8"/>
<stop offset="0.28" stop-color="#ED74FF"/>
<stop offset="0.54" stop-color="#F08AFF"/>
<stop offset="0.8" stop-color="#E851FF"/>
<stop offset="1" stop-color="#D34AE8"/>
</linearGradient>
<linearGradient id="paint19_linear_495_4943" x1="210.184" y1="500.953" x2="199.049" y2="471.883" gradientUnits="userSpaceOnUse">
<stop stop-color="#D34AE8"/>
<stop offset="0.28" stop-color="#ED74FF"/>
<stop offset="0.54" stop-color="#F08AFF"/>
<stop offset="0.8" stop-color="#E851FF"/>
<stop offset="1" stop-color="#D34AE8"/>
</linearGradient>
<linearGradient id="paint20_linear_495_4943" x1="200.581" y1="477.237" x2="145.971" y2="263.388" gradientUnits="userSpaceOnUse">
<stop stop-color="#D34AE8"/>
<stop offset="0.28" stop-color="#ED74FF"/>
<stop offset="0.54" stop-color="#F08AFF"/>
<stop offset="0.8" stop-color="#E851FF"/>
<stop offset="1" stop-color="#D34AE8"/>
</linearGradient>
<linearGradient id="paint21_linear_495_4943" x1="193.776" y1="460.432" x2="138.797" y2="60.8231" gradientUnits="userSpaceOnUse">
<stop stop-color="#D34AE8"/>
<stop offset="0.28" stop-color="#ED74FF"/>
<stop offset="0.54" stop-color="#F08AFF"/>
<stop offset="0.8" stop-color="#E851FF"/>
<stop offset="1" stop-color="#D34AE8"/>
</linearGradient>
<linearGradient id="paint22_linear_495_4943" x1="184.79" y1="438.242" x2="145.294" y2="-52.7846" gradientUnits="userSpaceOnUse">
<stop stop-color="#D34AE8"/>
<stop offset="0.28" stop-color="#ED74FF"/>
<stop offset="0.54" stop-color="#F08AFF"/>
<stop offset="0.8" stop-color="#E851FF"/>
<stop offset="1" stop-color="#D34AE8"/>
</linearGradient>
<linearGradient id="paint23_linear_495_4943" x1="174.667" y1="413.243" x2="142.741" y2="-108.275" gradientUnits="userSpaceOnUse">
<stop stop-color="#D34AE8"/>
<stop offset="0.28" stop-color="#ED74FF"/>
<stop offset="0.54" stop-color="#F08AFF"/>
<stop offset="0.8" stop-color="#E851FF"/>
<stop offset="1" stop-color="#D34AE8"/>
</linearGradient>
<linearGradient id="paint24_linear_495_4943" x1="164.117" y1="387.188" x2="134.563" y2="-142.969" gradientUnits="userSpaceOnUse">
<stop stop-color="#D34AE8"/>
<stop offset="0.28" stop-color="#ED74FF"/>
<stop offset="0.54" stop-color="#F08AFF"/>
<stop offset="0.8" stop-color="#E851FF"/>
<stop offset="1" stop-color="#D34AE8"/>
</linearGradient>
<linearGradient id="paint25_linear_495_4943" x1="152.456" y1="358.39" x2="116.926" y2="-149.229" gradientUnits="userSpaceOnUse">
<stop stop-color="#D34AE8"/>
<stop offset="0.28" stop-color="#ED74FF"/>
<stop offset="0.54" stop-color="#F08AFF"/>
<stop offset="0.8" stop-color="#E851FF"/>
<stop offset="1" stop-color="#D34AE8"/>
</linearGradient>
<linearGradient id="paint26_linear_495_4943" x1="140.198" y1="328.122" x2="93.6613" y2="-128.693" gradientUnits="userSpaceOnUse">
<stop stop-color="#D34AE8"/>
<stop offset="0.28" stop-color="#ED74FF"/>
<stop offset="0.54" stop-color="#F08AFF"/>
<stop offset="0.8" stop-color="#E851FF"/>
<stop offset="1" stop-color="#D34AE8"/>
</linearGradient>
<linearGradient id="paint27_linear_495_4943" x1="128.211" y1="298.521" x2="74.8063" y2="-114.217" gradientUnits="userSpaceOnUse">
<stop stop-color="#D34AE8"/>
<stop offset="0.28" stop-color="#ED74FF"/>
<stop offset="0.54" stop-color="#F08AFF"/>
<stop offset="0.8" stop-color="#E851FF"/>
<stop offset="1" stop-color="#D34AE8"/>
</linearGradient>
<linearGradient id="paint28_linear_495_4943" x1="115.94" y1="268.216" x2="57.148" y2="-85.8282" gradientUnits="userSpaceOnUse">
<stop stop-color="#D34AE8"/>
<stop offset="0.28" stop-color="#ED74FF"/>
<stop offset="0.54" stop-color="#F08AFF"/>
<stop offset="0.8" stop-color="#E851FF"/>
<stop offset="1" stop-color="#D34AE8"/>
</linearGradient>
<linearGradient id="paint29_linear_495_4943" x1="104.006" y1="238.747" x2="43.9432" y2="-70.7887" gradientUnits="userSpaceOnUse">
<stop stop-color="#D34AE8"/>
<stop offset="0.28" stop-color="#ED74FF"/>
<stop offset="0.54" stop-color="#F08AFF"/>
<stop offset="0.8" stop-color="#E851FF"/>
<stop offset="1" stop-color="#D34AE8"/>
</linearGradient>
<linearGradient id="paint30_linear_495_4943" x1="91.3817" y1="207.572" x2="34.7957" y2="-25.2712" gradientUnits="userSpaceOnUse">
<stop stop-color="#D34AE8"/>
<stop offset="0.28" stop-color="#ED74FF"/>
<stop offset="0.54" stop-color="#F08AFF"/>
<stop offset="0.8" stop-color="#E851FF"/>
<stop offset="1" stop-color="#D34AE8"/>
</linearGradient>
<linearGradient id="paint31_linear_495_4943" x1="79.2626" y1="177.644" x2="29.4475" y2="-1.34849" gradientUnits="userSpaceOnUse">
<stop stop-color="#D34AE8"/>
<stop offset="0.28" stop-color="#ED74FF"/>
<stop offset="0.54" stop-color="#F08AFF"/>
<stop offset="0.8" stop-color="#E851FF"/>
<stop offset="1" stop-color="#D34AE8"/>
</linearGradient>
<linearGradient id="paint32_linear_495_4943" x1="67.2097" y1="147.879" x2="28.5275" y2="25.7363" gradientUnits="userSpaceOnUse">
<stop stop-color="#D34AE8"/>
<stop offset="0.28" stop-color="#ED74FF"/>
<stop offset="0.54" stop-color="#F08AFF"/>
<stop offset="0.8" stop-color="#E851FF"/>
<stop offset="1" stop-color="#D34AE8"/>
</linearGradient>
<linearGradient id="paint33_linear_495_4943" x1="55.2227" y1="118.278" x2="30.773" y2="49.1909" gradientUnits="userSpaceOnUse">
<stop stop-color="#D34AE8"/>
<stop offset="0.28" stop-color="#ED74FF"/>
<stop offset="0.54" stop-color="#F08AFF"/>
<stop offset="0.8" stop-color="#E851FF"/>
<stop offset="1" stop-color="#D34AE8"/>
</linearGradient>
<linearGradient id="paint34_linear_495_4943" x1="43.0095" y1="88.1164" x2="33.6109" y2="63.8051" gradientUnits="userSpaceOnUse">
<stop stop-color="#D34AE8"/>
<stop offset="0.28" stop-color="#ED74FF"/>
<stop offset="0.54" stop-color="#F08AFF"/>
<stop offset="0.8" stop-color="#E851FF"/>
<stop offset="1" stop-color="#D34AE8"/>
</linearGradient>
<linearGradient id="paint35_linear_495_4943" x1="31.5884" y1="59.9119" x2="30.0945" y2="56.1966" gradientUnits="userSpaceOnUse">
<stop stop-color="#D34AE8"/>
<stop offset="0.28" stop-color="#ED74FF"/>
<stop offset="0.54" stop-color="#F08AFF"/>
<stop offset="0.8" stop-color="#E851FF"/>
<stop offset="1" stop-color="#D34AE8"/>
</linearGradient>
<linearGradient id="paint36_linear_495_4943" x1="20.6035" y1="32.7848" x2="19.6988" y2="30.5411" gradientUnits="userSpaceOnUse">
<stop stop-color="#D34AE8"/>
<stop offset="0.28" stop-color="#ED74FF"/>
<stop offset="0.54" stop-color="#F08AFF"/>
<stop offset="0.8" stop-color="#E851FF"/>
<stop offset="1" stop-color="#D34AE8"/>
</linearGradient>
<linearGradient id="paint37_linear_495_4943" x1="9.65169" y1="5.73946" x2="8.74766" y2="3.49749" gradientUnits="userSpaceOnUse">
<stop stop-color="#D34AE8"/>
<stop offset="0.28" stop-color="#ED74FF"/>
<stop offset="0.54" stop-color="#F08AFF"/>
<stop offset="0.8" stop-color="#E851FF"/>
<stop offset="1" stop-color="#D34AE8"/>
</linearGradient>
<linearGradient id="paint38_linear_495_4943" x1="-1.29973" y1="-21.3049" x2="-2.20376" y2="-23.5469" gradientUnits="userSpaceOnUse">
<stop stop-color="#D34AE8"/>
<stop offset="0.28" stop-color="#ED74FF"/>
<stop offset="0.54" stop-color="#F08AFF"/>
<stop offset="0.8" stop-color="#E851FF"/>
<stop offset="1" stop-color="#D34AE8"/>
</linearGradient>
<linearGradient id="paint39_linear_495_4943" x1="866.623" y1="1089.35" x2="976.467" y2="1041.34" gradientUnits="userSpaceOnUse">
<stop stop-color="#D34AE8"/>
<stop offset="0.28" stop-color="#ED74FF"/>
<stop offset="0.54" stop-color="#F08AFF"/>
<stop offset="0.8" stop-color="#E851FF"/>
<stop offset="1" stop-color="#D34AE8"/>
</linearGradient>
<linearGradient id="paint40_linear_495_4943" x1="783.693" y1="1123.64" x2="940.133" y2="1053.04" gradientUnits="userSpaceOnUse">
<stop stop-color="#D34AE8"/>
<stop offset="0.28" stop-color="#ED74FF"/>
<stop offset="0.54" stop-color="#F08AFF"/>
<stop offset="0.8" stop-color="#E851FF"/>
<stop offset="1" stop-color="#D34AE8"/>
</linearGradient>
<linearGradient id="paint41_linear_495_4943" x1="718.23" y1="1149.44" x2="901.248" y2="1065.35" gradientUnits="userSpaceOnUse">
<stop stop-color="#D34AE8"/>
<stop offset="0.28" stop-color="#ED74FF"/>
<stop offset="0.54" stop-color="#F08AFF"/>
<stop offset="0.8" stop-color="#E851FF"/>
<stop offset="1" stop-color="#D34AE8"/>
</linearGradient>
<linearGradient id="paint42_linear_495_4943" x1="671.952" y1="1168.19" x2="861.264" y2="1080.83" gradientUnits="userSpaceOnUse">
<stop stop-color="#D34AE8"/>
<stop offset="0.28" stop-color="#ED74FF"/>
<stop offset="0.54" stop-color="#F08AFF"/>
<stop offset="0.8" stop-color="#E851FF"/>
<stop offset="1" stop-color="#D34AE8"/>
</linearGradient>
<linearGradient id="paint43_linear_495_4943" x1="634.71" y1="1183.27" x2="821.447" y2="1097.24" gradientUnits="userSpaceOnUse">
<stop stop-color="#D34AE8"/>
<stop offset="0.28" stop-color="#ED74FF"/>
<stop offset="0.54" stop-color="#F08AFF"/>
<stop offset="0.8" stop-color="#E851FF"/>
<stop offset="1" stop-color="#D34AE8"/>
</linearGradient>
<linearGradient id="paint44_linear_495_4943" x1="600.12" y1="1197.27" x2="781.093" y2="1114.23" gradientUnits="userSpaceOnUse">
<stop stop-color="#D34AE8"/>
<stop offset="0.28" stop-color="#ED74FF"/>
<stop offset="0.54" stop-color="#F08AFF"/>
<stop offset="0.8" stop-color="#E851FF"/>
<stop offset="1" stop-color="#D34AE8"/>
</linearGradient>
<linearGradient id="paint45_linear_495_4943" x1="575.109" y1="1207.4" x2="739.804" y2="1132.66" gradientUnits="userSpaceOnUse">
<stop stop-color="#D34AE8"/>
<stop offset="0.28" stop-color="#ED74FF"/>
<stop offset="0.54" stop-color="#F08AFF"/>
<stop offset="0.8" stop-color="#E851FF"/>
<stop offset="1" stop-color="#D34AE8"/>
</linearGradient>
<linearGradient id="paint46_linear_495_4943" x1="546.788" y1="1218.87" x2="698.276" y2="1150.73" gradientUnits="userSpaceOnUse">
<stop stop-color="#D34AE8"/>
<stop offset="0.28" stop-color="#ED74FF"/>
<stop offset="0.54" stop-color="#F08AFF"/>
<stop offset="0.8" stop-color="#E851FF"/>
<stop offset="1" stop-color="#D34AE8"/>
</linearGradient>
<linearGradient id="paint47_linear_495_4943" x1="523.561" y1="1228.28" x2="657.044" y2="1168.97" gradientUnits="userSpaceOnUse">
<stop stop-color="#D34AE8"/>
<stop offset="0.28" stop-color="#ED74FF"/>
<stop offset="0.54" stop-color="#F08AFF"/>
<stop offset="0.8" stop-color="#E851FF"/>
<stop offset="1" stop-color="#D34AE8"/>
</linearGradient>
<linearGradient id="paint48_linear_495_4943" x1="496.668" y1="1239.16" x2="615.994" y2="1186.66" gradientUnits="userSpaceOnUse">
<stop stop-color="#D34AE8"/>
<stop offset="0.28" stop-color="#ED74FF"/>
<stop offset="0.54" stop-color="#F08AFF"/>
<stop offset="0.8" stop-color="#E851FF"/>
<stop offset="1" stop-color="#D34AE8"/>
</linearGradient>
<linearGradient id="paint49_linear_495_4943" x1="478.555" y1="1246.5" x2="574.214" y2="1205.09" gradientUnits="userSpaceOnUse">
<stop stop-color="#D34AE8"/>
<stop offset="0.28" stop-color="#ED74FF"/>
<stop offset="0.54" stop-color="#F08AFF"/>
<stop offset="0.8" stop-color="#E851FF"/>
<stop offset="1" stop-color="#D34AE8"/>
</linearGradient>
<linearGradient id="paint50_linear_495_4943" x1="454.629" y1="1256.19" x2="532.782" y2="1222.76" gradientUnits="userSpaceOnUse">
<stop stop-color="#D34AE8"/>
<stop offset="0.28" stop-color="#ED74FF"/>
<stop offset="0.54" stop-color="#F08AFF"/>
<stop offset="0.8" stop-color="#E851FF"/>
<stop offset="1" stop-color="#D34AE8"/>
</linearGradient>
<linearGradient id="paint51_linear_495_4943" x1="431.255" y1="1265.65" x2="491.229" y2="1240.32" gradientUnits="userSpaceOnUse">
<stop stop-color="#D34AE8"/>
<stop offset="0.28" stop-color="#ED74FF"/>
<stop offset="0.54" stop-color="#F08AFF"/>
<stop offset="0.8" stop-color="#E851FF"/>
<stop offset="1" stop-color="#D34AE8"/>
</linearGradient>
<linearGradient id="paint52_linear_495_4943" x1="407.391" y1="1275.32" x2="449.647" y2="1257.69" gradientUnits="userSpaceOnUse">
<stop stop-color="#D34AE8"/>
<stop offset="0.28" stop-color="#ED74FF"/>
<stop offset="0.54" stop-color="#F08AFF"/>
<stop offset="0.8" stop-color="#E851FF"/>
<stop offset="1" stop-color="#D34AE8"/>
</linearGradient>
<linearGradient id="paint53_linear_495_4943" x1="381.276" y1="1285.89" x2="408.912" y2="1274.48" gradientUnits="userSpaceOnUse">
<stop stop-color="#D34AE8"/>
<stop offset="0.28" stop-color="#ED74FF"/>
<stop offset="0.54" stop-color="#F08AFF"/>
<stop offset="0.8" stop-color="#E851FF"/>
<stop offset="1" stop-color="#D34AE8"/>
</linearGradient>
<linearGradient id="paint54_linear_495_4943" x1="355.656" y1="1296.27" x2="366.68" y2="1291.77" gradientUnits="userSpaceOnUse">
<stop stop-color="#D34AE8"/>
<stop offset="0.28" stop-color="#ED74FF"/>
<stop offset="0.54" stop-color="#F08AFF"/>
<stop offset="0.8" stop-color="#E851FF"/>
<stop offset="1" stop-color="#D34AE8"/>
</linearGradient>
<linearGradient id="paint55_linear_495_4943" x1="323.514" y1="1309.28" x2="325.759" y2="1308.37" gradientUnits="userSpaceOnUse">
<stop stop-color="#D34AE8"/>
<stop offset="0.28" stop-color="#ED74FF"/>
<stop offset="0.54" stop-color="#F08AFF"/>
<stop offset="0.8" stop-color="#E851FF"/>
<stop offset="1" stop-color="#D34AE8"/>
</linearGradient>
<linearGradient id="paint56_linear_495_4943" x1="284.667" y1="1325.01" x2="285.507" y2="1324.67" gradientUnits="userSpaceOnUse">
<stop stop-color="#D34AE8"/>
<stop offset="0.28" stop-color="#ED74FF"/>
<stop offset="0.54" stop-color="#F08AFF"/>
<stop offset="0.8" stop-color="#E851FF"/>
<stop offset="1" stop-color="#D34AE8"/>
</linearGradient>
<linearGradient id="paint57_linear_495_4943" x1="244.545" y1="1341.26" x2="245.385" y2="1340.92" gradientUnits="userSpaceOnUse">
<stop stop-color="#D34AE8"/>
<stop offset="0.28" stop-color="#ED74FF"/>
<stop offset="0.54" stop-color="#F08AFF"/>
<stop offset="0.8" stop-color="#E851FF"/>
<stop offset="1" stop-color="#D34AE8"/>
</linearGradient>
<linearGradient id="paint58_linear_495_4943" x1="204.423" y1="1357.51" x2="205.264" y2="1357.17" gradientUnits="userSpaceOnUse">
<stop stop-color="#D34AE8"/>
<stop offset="0.28" stop-color="#ED74FF"/>
<stop offset="0.54" stop-color="#F08AFF"/>
<stop offset="0.8" stop-color="#E851FF"/>
<stop offset="1" stop-color="#D34AE8"/>
</linearGradient>
<linearGradient id="paint59_linear_495_4943" x1="164.301" y1="1373.75" x2="165.141" y2="1373.41" gradientUnits="userSpaceOnUse">
<stop stop-color="#D34AE8"/>
<stop offset="0.28" stop-color="#ED74FF"/>
<stop offset="0.54" stop-color="#F08AFF"/>
<stop offset="0.8" stop-color="#E851FF"/>
<stop offset="1" stop-color="#D34AE8"/>
</linearGradient>
</defs>
</svg>
