<svg width="213" height="43" viewBox="0 0 213 43" fill="none" xmlns="http://www.w3.org/2000/svg">
<g clip-path="url(#clip0_495_36467)">
<path d="M75.824 9.39639V16.1889C75.6601 16.0482 75.491 15.9153 75.3168 15.7914V17.9321C75.4936 18.1012 75.6614 18.2844 75.824 18.4818V25.7156C74.7 27.1324 73.2006 27.8421 71.3232 27.8421C69.647 27.8421 68.3631 27.3492 67.4714 26.3646C66.5785 25.3801 66.1321 23.9581 66.1321 22.0987C66.1321 18.2702 67.825 16.3566 71.2122 16.3566C71.6522 16.3566 72.0755 16.3953 72.478 16.4727V14.612C71.9154 14.5049 71.318 14.452 70.687 14.452C68.5515 14.452 66.8947 15.1191 65.7166 16.4534C64.5385 17.7876 63.9488 19.6793 63.9488 22.1271C63.9488 23.3052 64.1101 24.3685 64.4326 25.3169C64.7552 26.2653 65.2159 27.0705 65.8133 27.7324C66.4108 28.3944 67.1424 28.9015 68.0082 29.2499C68.8728 29.5996 69.8483 29.7751 70.9348 29.7751C72.1129 29.7751 73.1116 29.5854 73.931 29.2099C74.7504 28.8331 75.4536 28.3763 76.0433 27.8434L76.3749 29.5002H77.9492V9.39639H75.8227H75.824Z" fill="white"/>
<path d="M76.2149 18.1592C75.9362 17.8212 75.6355 17.5179 75.3168 17.2534V25.5362C74.3013 26.7466 72.9916 27.3363 71.3231 27.3363C69.7825 27.3363 68.6469 26.9079 67.8469 26.0253C67.0456 25.1414 66.6391 23.8213 66.6391 22.1C66.6391 20.3787 67.0237 18.9864 67.7824 18.1283C68.536 17.2779 69.6573 16.8637 71.2135 16.8637C71.6548 16.8637 72.0767 16.9063 72.4793 16.9902V15.9566C72.0716 15.8843 71.6483 15.8495 71.2135 15.8495C69.376 15.8495 67.9656 16.3901 67.0237 17.456C66.0959 18.5038 65.6262 20.0651 65.6262 22.0987C65.6262 24.1323 66.1204 25.6291 67.0959 26.7053C68.0843 27.7956 69.5063 28.3492 71.3231 28.3492C73.3542 28.3492 75.002 27.5685 76.2214 26.0304L76.331 25.8924V18.2999L76.2149 18.1605V18.1592ZM76.2149 18.1592C75.9362 17.8212 75.6355 17.5179 75.3168 17.2534V25.5362C74.3013 26.7466 72.9916 27.3363 71.3231 27.3363C69.7825 27.3363 68.6469 26.9079 67.8469 26.0253C67.0456 25.1414 66.6391 23.8213 66.6391 22.1C66.6391 20.3787 67.0237 18.9864 67.7824 18.1283C68.536 17.2779 69.6573 16.8637 71.2135 16.8637C71.6548 16.8637 72.0767 16.9063 72.4793 16.9902V15.9566C72.0716 15.8843 71.6483 15.8495 71.2135 15.8495C69.376 15.8495 67.9656 16.3901 67.0237 17.456C66.0959 18.5038 65.6262 20.0651 65.6262 22.0987C65.6262 24.1323 66.1204 25.6291 67.0959 26.7053C68.0843 27.7956 69.5063 28.3492 71.3231 28.3492C73.3542 28.3492 75.002 27.5685 76.2214 26.0304L76.331 25.8924V18.2999L76.2149 18.1605V18.1592ZM75.3168 8.89056V16.4289C75.3762 16.4753 75.4342 16.5243 75.4923 16.5734L76.331 17.296V9.9035H77.4433V28.9905H76.7917L76.3672 26.864L75.7052 27.464C75.1568 27.9608 74.4884 28.3931 73.7206 28.7454C72.9709 29.0899 72.0341 29.2654 70.936 29.2654C69.9205 29.2654 69.0005 29.1015 68.1992 28.7776C67.4108 28.4589 66.7346 27.9918 66.1901 27.3892C65.6404 26.7801 65.2107 26.0266 64.9126 25.1491C64.6107 24.2588 64.4558 23.2407 64.4558 22.1232C64.4558 19.8148 65.0081 18.0186 66.0959 16.785C67.1824 15.5527 68.6844 14.9553 70.6857 14.9553C71.318 14.9553 71.9167 15.0133 72.4767 15.1282V14.0946C71.909 13.9927 71.3115 13.941 70.6857 13.941C68.4082 13.941 66.6095 14.6727 65.3359 16.114C64.0791 17.5373 63.4416 19.5606 63.4416 22.1232C63.4416 23.3516 63.6145 24.4807 63.9526 25.4756C64.2946 26.4859 64.7939 27.3569 65.4365 28.0692C66.0843 28.7866 66.8869 29.3415 67.8185 29.7183C68.7411 30.0912 69.7889 30.2796 70.9348 30.2796C72.1812 30.2796 73.26 30.0731 74.1426 29.6667C74.7142 29.4034 75.2394 29.0989 75.7104 28.7595L75.9581 30.0035H78.455V8.89056H75.3155H75.3168ZM67.8469 26.024C67.0456 25.1401 66.6391 23.82 66.6391 22.0987C66.6391 20.3774 67.0237 18.9851 67.7824 18.127C68.536 17.2766 69.6573 16.8624 71.2135 16.8624C71.6548 16.8624 72.0767 16.905 72.4793 16.9889V15.9553C72.0716 15.883 71.6483 15.8482 71.2135 15.8482C69.376 15.8482 67.9656 16.3889 67.0237 17.4547C66.0959 18.5025 65.6262 20.0638 65.6262 22.0974C65.6262 24.131 66.1204 25.6278 67.0959 26.704C68.0843 27.7944 69.5063 28.3479 71.3231 28.3479C73.3542 28.3479 75.002 27.5673 76.2214 26.0291L76.331 25.8911V18.2986L76.2149 18.1592C75.9362 17.8212 75.6355 17.5179 75.3168 17.2534V25.5362C74.3013 26.7466 72.9916 27.3363 71.3231 27.3363C69.7825 27.3363 68.6469 26.9079 67.8469 26.0253V26.024Z" fill="white"/>
<path d="M88.8282 29.7738C86.4539 29.7738 84.6448 29.1209 83.4022 27.8137C82.1596 26.5066 81.5389 24.593 81.5389 22.0703C81.5389 19.5477 82.1325 17.7179 83.3196 16.4095C84.5067 15.1024 86.25 14.4495 88.552 14.4495C90.854 14.4495 92.4631 15.025 93.6606 16.1747C94.8567 17.3257 95.4555 18.9593 95.4555 21.0755C95.4555 21.389 95.4464 21.6832 95.4284 21.9594C95.4103 22.2355 95.3909 22.4562 95.3729 22.6226H83.7209C83.8861 26.1014 85.5803 27.8408 88.8011 27.8408C91.1934 27.8408 92.6205 26.9479 93.0812 25.162H95.2077C94.8761 26.6898 94.1767 27.8408 93.1096 28.6138C92.0424 29.3867 90.6153 29.7738 88.8295 29.7738H88.8282ZM93.3289 20.9929C93.3289 19.4832 92.9238 18.3335 92.1147 17.5412C91.3044 16.7502 90.1172 16.354 88.5533 16.354C85.6629 16.354 84.0616 17.8999 83.7493 20.9929H93.3302H93.3289Z" fill="white"/>
<path d="M88.8282 30.2809C86.3197 30.2809 84.3713 29.5686 83.0358 28.1621C81.7067 26.7646 81.0331 24.7143 81.0331 22.0703C81.0331 19.4264 81.677 17.4663 82.9454 16.0688C84.2268 14.6585 86.1146 13.9423 88.5533 13.9423C90.9921 13.9423 92.7238 14.5707 94.0129 15.8095C95.3071 17.0547 95.9639 18.8263 95.9639 21.0754C95.9639 21.3929 95.9549 21.7013 95.9355 21.9916C95.9161 22.2716 95.8968 22.5026 95.8787 22.6768L95.8297 23.1284H84.2693C84.4061 24.4691 84.8126 25.4949 85.481 26.1814C86.2242 26.9453 87.343 27.3324 88.8037 27.3324C91.9999 27.3324 92.4464 25.6033 92.5922 25.0343L92.6902 24.6536H95.8374L95.7045 25.2678C95.3471 26.9143 94.5755 28.1776 93.4077 29.0228C92.2567 29.8563 90.7173 30.2783 88.8308 30.2783L88.8282 30.2809ZM88.552 14.9565C86.4113 14.9565 84.7765 15.5604 83.6951 16.7514C82.6009 17.9566 82.046 19.7464 82.046 22.0703C82.046 24.3942 82.6267 26.2614 83.77 27.464C84.9068 28.6602 86.6088 29.2667 88.8282 29.2667C90.4966 29.2667 91.836 28.9092 92.8102 28.2034C93.6361 27.606 94.2077 26.7737 94.5496 25.6691H93.4554C92.836 27.4472 91.2721 28.3479 88.7998 28.3479C85.3223 28.3479 83.3906 26.3762 83.2125 22.6471L83.1867 22.1155H94.9058C94.9097 22.0548 94.9148 21.9916 94.9187 21.9258C94.9368 21.6587 94.9458 21.3722 94.9458 21.0767C94.9458 19.1128 94.3948 17.5876 93.307 16.5411C92.2128 15.4895 90.6128 14.9565 88.5508 14.9565H88.552ZM93.8348 21.5H83.1854L83.2422 20.9425C83.579 17.6095 85.4152 15.8482 88.5508 15.8482C90.245 15.8482 91.5625 16.2959 92.467 17.1798C93.3741 18.0676 93.8348 19.3502 93.8348 20.9941V21.5013V21.5ZM84.3248 20.4857H92.8038C92.7238 19.3722 92.3741 18.505 91.7586 17.9037C91.0502 17.2121 89.9714 16.8611 88.5508 16.8611C86.0849 16.8611 84.73 18.0173 84.3235 20.4857H84.3248Z" fill="white"/>
<path d="M105.229 29.7738C102.854 29.7738 101.045 29.1209 99.8027 27.8137C98.5601 26.5066 97.9395 24.593 97.9395 22.0703C97.9395 19.5477 98.533 17.7179 99.7202 16.4095C100.907 15.1024 102.651 14.4495 104.953 14.4495C107.255 14.4495 108.864 15.025 110.061 16.1747C111.257 17.3257 111.856 18.9593 111.856 21.0755C111.856 21.389 111.847 21.6832 111.829 21.9594C111.811 22.2355 111.791 22.4562 111.773 22.6226H100.121C100.287 26.1014 101.981 27.8408 105.202 27.8408C107.594 27.8408 109.021 26.9479 109.482 25.162H111.608C111.277 26.6898 110.577 27.8408 109.51 28.6138C108.443 29.3867 107.016 29.7738 105.23 29.7738H105.229ZM109.729 20.9929C109.729 19.4832 109.324 18.3335 108.515 17.5412C107.705 16.7502 106.518 16.354 104.954 16.354C102.063 16.354 100.462 17.8999 100.15 20.9929H109.731H109.729Z" fill="white"/>
<path d="M105.229 30.2809C102.72 30.2809 100.772 29.5686 99.4363 28.1621C98.1072 26.7646 97.4336 24.7143 97.4336 22.0703C97.4336 19.4264 98.0775 17.4663 99.3459 16.0688C100.627 14.6585 102.515 13.9423 104.954 13.9423C107.393 13.9423 109.124 14.5707 110.413 15.8095C111.708 17.0547 112.364 18.8263 112.364 21.0754C112.364 21.3929 112.355 21.7013 112.336 21.9916C112.317 22.2716 112.297 22.5026 112.279 22.6768L112.23 23.1284H100.67C100.807 24.4691 101.213 25.4949 101.881 26.1814C102.625 26.9453 103.743 27.3324 105.204 27.3324C108.4 27.3324 108.847 25.6033 108.993 25.0343L109.091 24.6536H112.238L112.105 25.2678C111.748 26.9143 110.976 28.1776 109.808 29.0228C108.657 29.8563 107.118 30.2783 105.231 30.2783L105.229 30.2809ZM104.953 14.9565C102.812 14.9565 101.177 15.5604 100.096 16.7514C99.0014 17.9566 98.4466 19.7464 98.4466 22.0703C98.4466 24.3942 99.0272 26.2614 100.17 27.464C101.307 28.6602 103.009 29.2667 105.229 29.2667C106.897 29.2667 108.237 28.9092 109.211 28.2034C110.037 27.606 110.608 26.7737 110.95 25.6691H109.856C109.237 27.4472 107.673 28.3479 105.2 28.3479C101.723 28.3479 99.7911 26.3762 99.613 22.6471L99.5872 22.1155H111.306C111.31 22.0548 111.315 21.9916 111.319 21.9258C111.337 21.6587 111.346 21.3722 111.346 21.0767C111.346 19.1128 110.795 17.5876 109.708 16.5411C108.613 15.4895 107.013 14.9565 104.951 14.9565H104.953ZM110.237 21.5H99.5872L99.644 20.9425C99.9808 17.6095 101.817 15.8482 104.953 15.8482C106.647 15.8482 107.964 16.2959 108.869 17.1798C109.776 18.0676 110.237 19.3502 110.237 20.9941V21.5013V21.5ZM100.725 20.4857H109.204C109.124 19.3722 108.775 18.505 108.159 17.9037C107.451 17.2121 106.372 16.8611 104.951 16.8611C102.485 16.8611 101.131 18.0173 100.724 20.4857H100.725Z" fill="white"/>
<path d="M136.401 24.6937C136.401 25.8537 136.645 26.6821 137.133 27.1789C137.621 27.6757 138.435 27.9247 139.577 27.9247C139.908 27.9247 140.244 27.9105 140.585 27.8834C140.925 27.8563 141.223 27.8241 141.481 27.7867V29.5816C141.261 29.6177 140.938 29.659 140.515 29.7054C140.092 29.7506 139.668 29.7751 139.245 29.7751C135.932 29.7751 134.275 28.2112 134.275 25.0808V16.4108H131.044V14.7269H134.275V10.8339L136.401 10.2816V14.7269H141.372V16.4108H136.401V24.6937Z" fill="white"/>
<path d="M139.245 30.2809C135.662 30.2809 133.769 28.4821 133.769 25.0794V16.9166H130.538V14.2185H133.769V10.4403L136.908 9.62479V14.2185H141.879V16.9166H136.908V24.6923C136.908 25.7091 137.106 26.4253 137.494 26.8227C137.881 27.2163 138.581 27.4163 139.576 27.4163C139.89 27.4163 140.217 27.4034 140.542 27.3763C140.875 27.3492 141.167 27.3182 141.408 27.2834L141.987 27.1995V30.0086L141.563 30.0783C141.33 30.117 141.005 30.1583 140.568 30.2061C140.125 30.2538 139.679 30.2783 139.243 30.2783L139.245 30.2809ZM131.551 15.9024H134.782V25.0794C134.782 27.9363 136.2 29.2667 139.245 29.2667C139.645 29.2667 140.054 29.2447 140.461 29.2009C140.653 29.1802 140.825 29.1596 140.974 29.1415V28.357C140.863 28.3673 140.747 28.3776 140.625 28.3879C140.271 28.4163 139.919 28.4305 139.576 28.4305C138.298 28.4305 137.355 28.1286 136.77 27.5324C136.181 26.9311 135.894 26.0021 135.894 24.6923V15.9024H140.865V15.2314H135.894V10.9345L134.782 11.2235V15.2314H131.551V15.9024Z" fill="white"/>
<path d="M144.518 14.7256H146.202L146.533 16.9902C147.6 15.2972 149.212 14.4495 151.366 14.4495C151.495 14.4495 151.642 14.4546 151.807 14.4637C151.972 14.4727 152.11 14.4959 152.221 14.532V16.5205C152.074 16.4844 151.895 16.456 151.683 16.4379C151.471 16.4198 151.273 16.4108 151.089 16.4108C148.346 16.4108 146.865 17.8934 146.644 20.8561V29.4977H144.518V14.7256Z" fill="white"/>
<path d="M147.151 30.0047H144.012V14.2185H146.642L146.864 15.7359C147.987 14.5449 149.497 13.9423 151.367 13.9423C151.504 13.9423 151.657 13.9475 151.837 13.9565C152.051 13.9694 152.229 13.9991 152.382 14.0507L152.729 14.1656V17.1682L152.1 17.0121C151.978 16.9824 151.824 16.9592 151.639 16.9424C151.44 16.9256 151.256 16.9166 151.089 16.9166C148.609 16.9166 147.358 18.1747 147.151 20.8741V30.0047ZM145.025 28.9905H146.137V20.8174C146.378 17.6018 148.091 15.9024 151.089 15.9024C151.28 15.9024 151.491 15.9114 151.714 15.9308V14.9656C151.582 14.9591 151.465 14.9565 151.366 14.9565C149.38 14.9565 147.94 15.7101 146.963 17.2598L146.231 18.4212L145.764 15.2327H145.025V28.9905Z" fill="white"/>
<path d="M167.434 29.4976H165.86L165.419 27.5376C164.829 28.2189 164.158 28.7621 163.403 29.1673C162.649 29.5725 161.728 29.7751 160.642 29.7751C159.023 29.7751 157.743 29.2692 156.804 28.2563C155.866 27.2447 155.397 25.8446 155.397 24.06V14.7281H157.523V23.6458C157.523 25.0085 157.841 26.0524 158.475 26.7801C159.11 27.5079 160.027 27.8705 161.223 27.8705C162.051 27.8705 162.806 27.6627 163.487 27.2498C164.169 26.8356 164.775 26.2511 165.309 25.4962V14.7281H167.436V29.5002L167.434 29.4976Z" fill="white"/>
<path d="M160.642 30.2809C158.883 30.2809 157.466 29.7157 156.433 28.5996C155.408 27.495 154.89 25.9672 154.89 24.0575V14.2185H158.029V23.6433C158.029 24.873 158.308 25.815 158.856 26.4434C159.395 27.0602 160.168 27.3608 161.221 27.3608C161.962 27.3608 162.616 27.1814 163.223 26.8137C163.802 26.4614 164.332 25.9621 164.801 25.3298V14.2185H167.94V30.0048H165.454L165.129 28.5596C164.672 28.975 164.174 29.3286 163.642 29.6138C162.815 30.0564 161.806 30.2809 160.642 30.2809ZM155.902 15.2327V24.0588C155.902 25.704 156.331 27.0008 157.175 27.9105C158.021 28.8228 159.154 29.2667 160.641 29.2667C161.637 29.2667 162.485 29.0821 163.162 28.7196C163.858 28.3466 164.487 27.8369 165.034 27.206L165.691 26.4459L166.265 28.9905H166.927V15.2327H165.815V25.6549L165.722 25.7866C165.151 26.5943 164.487 27.2318 163.749 27.6795C162.99 28.1402 162.14 28.375 161.221 28.375C159.877 28.375 158.825 27.9492 158.092 27.1105C157.377 26.2924 157.015 25.1259 157.015 23.6433V15.2314H155.902V15.2327Z" fill="white"/>
<path d="M172.129 14.7256H173.73L174.144 16.6586C174.715 15.9953 175.359 15.4624 176.077 15.0572C176.795 14.652 177.67 14.4495 178.701 14.4495C179.732 14.4495 180.643 14.6701 181.379 15.1127C182.115 15.554 182.686 16.1889 183.092 17.0173C183.717 16.2444 184.44 15.6224 185.259 15.154C186.079 14.6843 187.049 14.4495 188.172 14.4495C189.755 14.4495 190.998 14.9463 191.9 15.9398C192.802 16.9334 193.252 18.296 193.252 20.0264V29.4964H191.125V20.4406C191.125 19.1154 190.822 18.1038 190.214 17.4031C189.607 16.7037 188.733 16.354 187.591 16.354C186.818 16.354 186.096 16.5566 185.423 16.9618C184.751 17.367 184.157 17.9554 183.643 18.7283C183.679 18.9309 183.707 19.1386 183.725 19.349C183.743 19.5606 183.752 19.7864 183.752 20.0251V29.4951H181.626V20.4393C181.626 19.1141 181.326 18.1025 180.729 17.4018C180.13 16.7024 179.261 16.3527 178.12 16.3527C177.347 16.3527 176.633 16.5553 175.98 16.9605C175.326 17.3657 174.752 17.9451 174.255 18.6999V29.4964H172.129V14.7243V14.7256Z" fill="white"/>
<path d="M193.758 30.0047H190.618V20.4419C190.618 19.2483 190.354 18.3386 189.831 17.7373C189.32 17.1489 188.587 16.8624 187.591 16.8624C186.906 16.8624 186.283 17.0379 185.685 17.3966C185.128 17.7321 184.621 18.2199 184.176 18.8483C184.199 18.9992 184.217 19.1528 184.23 19.3064C184.249 19.5347 184.259 19.7773 184.259 20.0277V30.0047H181.12V20.4419C181.12 19.247 180.859 18.336 180.345 17.7334C179.843 17.1476 179.115 16.8624 178.121 16.8624C177.439 16.8624 176.826 17.0366 176.249 17.394C175.698 17.736 175.197 18.2276 174.762 18.8573V30.0047H171.623V14.2185H174.142L174.442 15.625C174.872 15.2327 175.335 14.8946 175.83 14.6159C176.622 14.1694 177.588 13.9436 178.702 13.9436C179.815 13.9436 180.828 14.1914 181.641 14.6778C182.257 15.0469 182.772 15.5411 183.179 16.1514C183.728 15.5785 184.341 15.0959 185.008 14.714C185.901 14.203 186.965 13.9423 188.173 13.9423C189.898 13.9423 191.278 14.4998 192.276 15.5991C193.261 16.6856 193.76 18.1747 193.76 20.0264V30.0035L193.758 30.0047ZM191.631 28.9905H192.744V20.0264C192.744 18.4341 192.333 17.1734 191.522 16.2805C190.713 15.3888 189.616 14.9553 188.169 14.9553C187.141 14.9553 186.245 15.1695 185.509 15.5927C184.747 16.0288 184.066 16.6147 183.483 17.336L182.982 17.9541L182.632 17.2405C182.267 16.4947 181.772 15.9411 181.115 15.5475C180.462 15.1553 179.649 14.9565 178.698 14.9565C177.747 14.9565 176.962 15.1385 176.324 15.4985C175.66 15.8727 175.055 16.3747 174.526 16.9889L173.86 17.7631L173.318 15.2327H172.633V28.9905H173.746V18.5502L173.829 18.4237C174.365 17.6108 174.999 16.9747 175.712 16.5321C176.444 16.0779 177.254 15.8482 178.119 15.8482C179.409 15.8482 180.417 16.2611 181.114 17.0753C181.79 17.8663 182.133 18.9992 182.133 20.4419V28.9918H183.245V20.0277C183.245 19.807 183.236 19.5941 183.219 19.3941C183.203 19.2005 183.177 19.007 183.143 18.8199L183.107 18.6186L183.221 18.4483C183.776 17.616 184.428 16.9695 185.161 16.5282C185.911 16.0766 186.728 15.8482 187.591 15.8482C188.88 15.8482 189.892 16.2598 190.596 17.0714C191.283 17.8624 191.631 18.9967 191.631 20.4406V28.9905Z" fill="white"/>
<path d="M199.407 14.7256L199.766 16.3553C200.336 15.8211 201.032 15.3708 201.851 15.0017C202.67 14.634 203.659 14.4494 204.819 14.4494C205.905 14.4494 206.879 14.6249 207.745 14.9746C208.61 15.3243 209.342 15.8301 209.94 16.4934C210.538 17.1566 210.998 17.9566 211.321 18.896C211.642 19.8354 211.804 20.9025 211.804 22.0987C211.804 24.5284 211.219 26.415 210.05 27.7582C208.881 29.1015 207.22 29.7738 205.067 29.7738C203.944 29.7738 202.958 29.6034 202.112 29.2628C201.265 28.9221 200.537 28.4937 199.931 27.9789V34.4681H197.804V14.7256H199.406H199.407ZM199.932 25.7427C201.092 27.1414 202.629 27.8408 204.543 27.8408C207.948 27.8408 209.651 25.9362 209.651 22.1258C209.651 20.2664 209.2 18.8444 208.299 17.8599C207.397 16.8753 206.108 16.3824 204.433 16.3824C202.556 16.3824 201.055 17.0908 199.932 18.5089V25.7427Z" fill="white"/>
<path d="M200.439 34.974H197.3V14.2185H199.816L200.084 15.4366C200.548 15.0985 201.07 14.7979 201.645 14.5398C202.526 14.1437 203.594 13.9437 204.82 13.9437C205.966 13.9437 207.014 14.1321 207.936 14.505C208.869 14.883 209.671 15.4379 210.318 16.1541C210.96 16.865 211.459 17.7322 211.802 18.7309C212.142 19.7193 212.313 20.8523 212.313 22.0987C212.313 24.6433 211.681 26.6589 210.436 28.0912C209.171 29.5441 207.366 30.2809 205.069 30.2809C203.887 30.2809 202.829 30.0964 201.926 29.7338C201.389 29.5183 200.892 29.2654 200.441 28.979V34.9753L200.439 34.974ZM198.313 33.961H199.425V26.8847L200.26 27.5931C200.824 28.0705 201.51 28.4744 202.303 28.7931C203.085 29.108 204.015 29.268 205.068 29.268C207.086 29.268 208.592 28.6654 209.669 27.4267C210.751 26.184 211.298 24.3917 211.298 22.0987C211.298 20.9645 211.144 19.9426 210.842 19.0599C210.544 18.1915 210.114 17.4418 209.565 16.8328C209.021 16.2315 208.345 15.7644 207.556 15.4444C206.754 15.1205 205.833 14.9566 204.819 14.9566C203.736 14.9566 202.808 15.1269 202.059 15.4637C201.294 15.8082 200.639 16.2315 200.113 16.7244L199.462 17.3322L198.999 15.2314H198.313V33.9597V33.961ZM204.543 28.348C202.479 28.348 200.797 27.5802 199.541 26.0666L199.425 25.926V18.3322L199.535 18.1941C200.753 16.656 202.401 15.8753 204.433 15.8753C206.247 15.8753 207.674 16.4276 208.672 17.5167C209.658 18.5941 210.158 20.1439 210.158 22.1246C210.158 24.1053 209.685 25.7053 208.752 26.7492C207.805 27.8099 206.388 28.3467 204.543 28.3467V28.348ZM200.439 25.5556C201.491 26.7518 202.836 27.3337 204.544 27.3337C206.11 27.3337 207.24 26.9221 207.997 26.0744C208.758 25.2214 209.145 23.8936 209.145 22.1258C209.145 20.3581 208.735 19.087 207.926 18.2019C207.117 17.3192 205.975 16.8896 204.434 16.8896C202.765 16.8896 201.456 17.478 200.441 18.6896V25.5569L200.439 25.5556Z" fill="white"/>
<path d="M117.426 34.9726V28.1802C117.59 28.3208 117.759 28.4537 117.934 28.5776V26.4369C117.757 26.2679 117.589 26.0846 117.426 25.8872V18.6534C118.55 17.2366 120.05 16.5269 121.927 16.5269C123.603 16.5269 124.887 17.0198 125.779 18.0044C126.672 18.9889 127.118 20.4109 127.118 22.2703C127.118 26.0988 125.425 28.0124 122.038 28.0124C121.598 28.0124 121.175 27.9737 120.772 27.8963V29.757C121.335 29.8641 121.932 29.917 122.563 29.917C124.699 29.917 126.356 29.2499 127.534 27.9157C128.712 26.5814 129.302 24.6897 129.302 22.2419C129.302 21.0638 129.14 20.0006 128.818 19.0522C128.495 18.1037 128.035 17.2986 127.437 16.6366C126.84 15.9746 126.108 15.4675 125.242 15.1191C124.378 14.7695 123.402 14.594 122.316 14.594C121.138 14.594 120.139 14.7836 119.319 15.1591C118.5 15.5359 117.797 15.9927 117.207 16.5256L116.875 14.8688H115.301V34.9701H117.428L117.426 34.9726Z" fill="white"/>
<path d="M117.035 26.2111C117.314 26.5492 117.615 26.8524 117.934 27.1169V18.8341C118.949 17.6237 120.259 17.034 121.927 17.034C123.468 17.034 124.603 17.4624 125.403 18.345C126.205 19.2289 126.611 20.549 126.611 22.2703C126.611 23.9917 126.227 25.384 125.468 26.2421C124.714 27.0924 123.593 27.5066 122.037 27.5066C121.596 27.5066 121.174 27.464 120.771 27.3802V28.4137C121.179 28.486 121.602 28.5208 122.037 28.5208C123.874 28.5208 125.285 27.9802 126.227 26.9143C127.155 25.8666 127.624 24.3052 127.624 22.2716C127.624 20.238 127.13 18.7412 126.154 17.665C125.166 16.5747 123.744 16.0211 121.927 16.0211C119.896 16.0211 118.248 16.8018 117.029 18.3399L116.919 18.478V26.0704L117.035 26.2098V26.2111ZM117.035 26.2111C117.314 26.5492 117.615 26.8524 117.934 27.1169V18.8341C118.949 17.6237 120.259 17.034 121.927 17.034C123.468 17.034 124.603 17.4624 125.403 18.345C126.205 19.2289 126.611 20.549 126.611 22.2703C126.611 23.9917 126.227 25.384 125.468 26.2421C124.714 27.0924 123.593 27.5066 122.037 27.5066C121.596 27.5066 121.174 27.464 120.771 27.3802V28.4137C121.179 28.486 121.602 28.5208 122.037 28.5208C123.874 28.5208 125.285 27.9802 126.227 26.9143C127.155 25.8666 127.624 24.3052 127.624 22.2716C127.624 20.238 127.13 18.7412 126.154 17.665C125.166 16.5747 123.744 16.0211 121.927 16.0211C119.896 16.0211 118.248 16.8018 117.029 18.3399L116.919 18.478V26.0704L117.035 26.2098V26.2111ZM117.934 35.4798V27.9415C117.874 27.895 117.816 27.846 117.758 27.7969L116.919 27.0743V34.4668H115.807V15.3798H116.459L116.883 17.5063L117.545 16.9063C118.094 16.4095 118.762 15.9772 119.53 15.625C120.279 15.2804 121.216 15.105 122.314 15.105C123.33 15.105 124.25 15.2688 125.051 15.5927C125.84 15.9114 126.516 16.3785 127.06 16.9811C127.61 17.5902 128.04 18.3438 128.338 19.2212C128.64 20.1116 128.795 21.1297 128.795 22.2471C128.795 24.5556 128.242 26.3517 127.155 27.5853C126.068 28.8176 124.566 29.4151 122.565 29.4151C121.932 29.4151 121.334 29.357 120.774 29.2422V30.2757C121.341 30.3777 121.939 30.4293 122.565 30.4293C124.842 30.4293 126.641 29.6976 127.915 28.2563C129.171 26.833 129.809 24.8098 129.809 22.2471C129.809 21.0187 129.636 19.8896 129.298 18.8947C128.956 17.8844 128.456 17.0134 127.814 16.3011C127.166 15.5837 126.364 15.0288 125.432 14.652C124.509 14.2791 123.461 14.0907 122.316 14.0907C121.069 14.0907 119.99 14.2972 119.108 14.7037C118.536 14.9669 118.011 15.2714 117.54 15.6108L117.292 14.3669H114.795V35.4823H117.935L117.934 35.4798ZM125.405 18.3463C126.206 19.2302 126.613 20.5503 126.613 22.2716C126.613 23.993 126.228 25.3853 125.469 26.2434C124.716 27.0937 123.594 27.5079 122.038 27.5079C121.597 27.5079 121.175 27.4653 120.772 27.3814V28.415C121.18 28.4873 121.603 28.5221 122.038 28.5221C123.876 28.5221 125.286 27.9815 126.228 26.9156C127.156 25.8679 127.625 24.3065 127.625 22.2729C127.625 20.2393 127.131 18.7425 126.156 17.6663C125.167 16.576 123.745 16.0224 121.929 16.0224C119.898 16.0224 118.25 16.8031 117.03 18.3412L116.921 18.4792V26.0717L117.037 26.2111C117.316 26.5492 117.616 26.8524 117.935 27.1169V18.8341C118.95 17.6237 120.26 17.034 121.929 17.034C123.469 17.034 124.605 17.4624 125.405 18.345V18.3463Z" fill="white"/>
<path d="M46.8576 3.30823C44.7427 2.74692 42.584 2.6166 40.4097 2.73144C40.202 2.74305 39.9916 2.71724 39.7839 2.73273C39.0522 2.7895 37.9154 3.09274 37.2741 3.07726C36.5502 3.05919 34.4353 2.07464 33.576 1.80367C32.0275 1.31591 29.9229 0.8088 28.3255 1.20752C28.039 1.27849 27.3061 1.51979 27.5087 1.9327C27.5345 1.98819 28.1539 2.30046 28.2971 2.39982C29.8481 3.47469 30.2004 5.40249 28.6184 6.63865C27.4751 7.53287 26.3228 8.20257 25.1963 9.21163C22.5627 11.5691 19.8801 15.3241 16.5187 16.5757C16.0632 16.7461 15.8554 16.8041 15.6348 16.3189C15.4425 15.8944 15.0051 14.6066 14.9341 14.1653C14.9122 14.0234 14.9018 13.8879 14.9457 13.7473C15.0218 13.5034 15.9457 12.9343 16.2038 12.7214C19.0994 10.3291 20.3291 6.50833 19.5265 2.83596C19.4052 2.27852 18.791 0.433305 18.3445 0.136522C17.3058 -0.552531 17.0271 1.55334 16.7909 2.11981C16.0825 3.80889 14.5612 3.94954 13.2128 4.82053C12.0501 5.57281 11.2733 6.70962 11.0953 8.09805C11.0269 8.16902 10.6307 7.71094 10.552 7.64384C9.72362 6.95221 8.73779 6.4051 7.67195 6.18444C5.86415 5.80895 4.79186 6.45284 3.13246 5.1857C2.73115 4.87989 1.60983 3.60243 1.28982 3.54179C0.871744 3.46307 0.440764 3.89534 0.331083 4.27084C0.128496 4.97538 0.528508 6.87866 0.733676 7.64126C1.72983 11.3343 4.45637 13.7898 8.17261 14.5899C8.50165 14.6621 9.48233 14.6905 9.63717 14.9524C9.81137 15.2505 9.66943 15.5512 9.66556 15.8325C9.61394 19.5629 11.2437 24.9282 13.0837 28.1761C14.4076 30.5129 16.1651 32.4639 17.9419 34.455C17.9561 34.535 17.8516 34.5982 17.8013 34.6447C17.4671 34.9608 15.8748 35.4227 15.3212 35.6473C14.667 35.9131 13.9328 36.2253 13.3018 36.5389C12.9044 36.735 12.4876 36.8538 12.414 37.3634C12.1831 38.9557 14.0954 39.1816 15.2412 39.3209C16.3832 39.459 17.5174 39.4487 18.6594 39.3274C19.9084 39.1945 21.1601 38.9532 22.3034 38.4267C24.8002 40.5184 27.6196 41.9662 30.8468 42.5546C39.3852 44.1133 46.9893 41.561 52.7998 35.2176C56.4941 31.1865 58.6477 25.6818 58.7083 20.2016C58.7109 19.9939 58.7109 19.7823 58.7083 19.5745C58.6141 12.3743 54.0037 5.20377 46.8576 3.30823ZM47.1454 13.8131L48.6009 13.044C48.7313 12.9756 48.8035 12.8298 48.779 12.6853L48.5119 11.0607C48.4577 10.7343 48.8512 10.5278 49.09 10.7588L50.2706 11.9046C50.3765 12.0078 50.5365 12.0311 50.6681 11.964L52.1288 11.2065C52.423 11.0543 52.7417 11.3665 52.5959 11.6633L51.8707 13.1408C51.8049 13.2737 51.832 13.4324 51.9365 13.5369L53.1082 14.6931C53.3443 14.9254 53.1456 15.3241 52.8178 15.2776L51.1894 15.0441C51.0423 15.0234 50.8991 15.0983 50.8332 15.2299L50.0952 16.7009C49.9468 16.9977 49.5068 16.9319 49.45 16.6054L49.1687 14.9847C49.1429 14.8389 49.028 14.7253 48.8822 14.7034L47.2551 14.457C46.9273 14.4066 46.8525 13.9679 47.1454 13.8131ZM41.2717 7.53029L42.193 7.39351C42.3388 7.37158 42.4549 7.25932 42.4807 7.1135L42.6433 6.19735C42.7001 5.87089 43.1414 5.80766 43.2885 6.10444L43.7027 6.93802C43.7685 7.06963 43.9117 7.14447 44.0576 7.12512L44.9802 6.99608C45.3079 6.94963 45.5041 7.34964 45.2679 7.58062L44.6034 8.23354C44.4976 8.33677 44.4705 8.49548 44.535 8.62839L44.9415 9.46583C45.0873 9.76391 44.7673 10.0736 44.4743 9.92004L43.6485 9.48906C43.5182 9.42067 43.3582 9.4439 43.2524 9.54713L42.5814 10.1923C42.3427 10.422 41.9491 10.2155 42.0046 9.88907L42.1594 8.97033C42.184 8.82452 42.1117 8.68 41.9814 8.61032L41.1607 8.17289C40.8678 8.01676 40.9439 7.57803 41.2717 7.53029ZM40.6239 14.1253L41.5491 14.2195C41.6962 14.235 41.8368 14.1537 41.8975 14.0195L42.2807 13.1705C42.4175 12.8698 42.8588 12.9163 42.9298 13.2401L43.1259 14.1498C43.1569 14.2944 43.2769 14.4028 43.424 14.4182L44.3492 14.5215C44.6782 14.5576 44.7698 14.9925 44.4834 15.1589L43.6795 15.6273C43.5517 15.7021 43.4859 15.8493 43.5156 15.9938L43.704 16.9061C43.7711 17.2299 43.3853 17.4519 43.1388 17.2312L42.4446 16.6106C42.3349 16.5112 42.1749 16.4944 42.0459 16.568L41.2368 17.0286C40.9491 17.1925 40.6187 16.8944 40.7529 16.5925L41.1284 15.7409C41.1891 15.6054 41.1555 15.4467 41.0459 15.3473L40.3581 14.7215C40.1129 14.4982 40.2936 14.0918 40.6239 14.1253ZM54.9082 22.2623C54.1585 26.8302 51.1171 31.962 47.5028 34.8279C45.5699 36.3595 40.7658 39.2861 38.4045 37.5105C37.4406 36.7867 38.2277 36.2202 38.6858 35.5879C39.0974 35.0189 40.3297 33.0188 38.9297 32.8885C37.7296 32.7762 34.8212 34.2795 33.6831 34.8705C32.603 35.4305 31.5075 36.1621 30.4262 36.6731C28.9152 37.3867 27.2661 37.3725 25.6351 37.2099L23.955 36.8576C24.8157 36.3621 25.7151 35.9002 26.5512 35.3492C31.5965 32.0265 34.5115 26.6225 39.6755 23.434C43.4059 21.132 49.3377 19.3823 53.6501 20.7165C54.5508 20.9952 55.0863 21.181 54.9082 22.2623Z" fill="white"/>
</g>
<defs>
<clipPath id="clip0_495_36467">
<rect width="212.036" height="43" fill="white" transform="translate(0.275848)"/>
</clipPath>
</defs>
</svg>
