<svg width="13" height="16" viewBox="0 0 13 16" fill="none" xmlns="http://www.w3.org/2000/svg">
<g clip-path="url(#clip0_495_36507)">
<path fill-rule="evenodd" clip-rule="evenodd" d="M7.34504 5.88819C7.78204 5.67028 8.33809 5.34952 8.8948 4.91005C9.01219 5.15381 9.02504 5.36652 8.96457 5.53828C8.92171 5.65933 8.84095 5.76462 8.73476 5.84838C8.61976 5.9389 8.47614 6.00481 8.31738 6.04043C8.01614 6.10828 7.66442 6.06866 7.34504 5.88819ZM7.4208 8.12085L7.99928 8.455C6.81814 9.117 6.49704 10.3462 6.11561 11.5435C5.73423 10.3462 5.41309 9.117 4.23199 8.455L4.81047 8.12085C4.86643 8.09971 4.91426 8.06139 4.94711 8.01139C4.97996 7.96139 4.99614 7.90228 4.99333 7.84252C4.94033 6.72124 5.24309 6.22538 5.65147 5.91405C5.79795 5.80252 5.95785 5.74652 6.11561 5.74652C6.27338 5.74652 6.43328 5.80252 6.5798 5.91405C6.98819 6.22538 7.29095 6.72124 7.23795 7.84252C7.23514 7.90228 7.25132 7.96139 7.28417 8.01139C7.31701 8.06139 7.36484 8.09971 7.4208 8.12085ZM6.11561 0.799332C6.78428 0.817284 7.45461 0.947094 8.03638 1.19962C8.43923 1.37471 8.81514 1.606 9.15552 1.88257C9.30923 2.00743 9.4358 2.12805 9.57523 2.2669C9.95128 2.2799 10.5009 1.86214 10.756 1.47124C10.3169 2.91076 8.31319 4.61071 6.92599 5.26119C6.92542 5.26095 6.92504 5.26062 6.92461 5.26033C6.67566 5.07024 6.39566 4.97519 6.11561 4.97519C5.83557 4.97519 5.55561 5.07024 5.30666 5.26033C5.30623 5.26057 5.30585 5.261 5.30528 5.26119C3.91804 4.61071 1.91438 2.91076 1.47528 1.47124C1.73038 1.86214 2.27995 2.2799 2.656 2.2669C2.79547 2.12809 2.92204 2.00743 3.07571 1.88257C3.41609 1.606 3.79199 1.37471 4.19485 1.19962C4.77666 0.947094 5.44699 0.817284 6.11561 0.799332ZM4.88619 5.88819C4.44923 5.67028 3.89314 5.34952 3.33647 4.91005C3.21909 5.15381 3.20623 5.36652 3.26666 5.53828C3.30957 5.65933 3.39033 5.76462 3.49647 5.84838C3.61152 5.9389 3.75514 6.00481 3.9139 6.04043C4.21514 6.10828 4.5668 6.06866 4.88619 5.88819Z" fill="white"/>
<path fill-rule="evenodd" clip-rule="evenodd" d="M9.50451 4.37152C9.81098 4.06224 10.081 3.7199 10.2982 3.41443L10.4085 3.622C10.7635 4.33233 10.948 5.03981 10.948 5.836L10.9472 7.09943L10.9539 7.75438C10.9796 9.36229 11.3275 10.9891 12.1156 12.4779L10.4667 11.1482L9.29998 13.0415L8.07427 11.8877L6.1156 15.0662L4.15693 11.8877L2.93127 13.0416L1.76455 11.1483L0.115601 12.4779C0.903696 10.9891 1.2516 9.36233 1.27736 7.75443L1.28403 7.09948L1.28327 5.83605C1.28327 5.03981 1.4677 4.33233 1.82284 3.62205L1.93308 3.41448C2.15022 3.71995 2.42022 4.06224 2.72674 4.37157L2.63103 4.57038C2.44508 4.95652 2.38351 5.38829 2.52836 5.7989C2.62174 6.06338 2.79217 6.29019 3.01189 6.46333C3.22522 6.63148 3.4777 6.74481 3.74203 6.80433C3.91422 6.8431 4.08965 6.85905 4.26393 6.85362C4.22327 7.08414 4.20551 7.32324 4.20436 7.56686L2.64893 8.46524L3.84922 9.13805C3.94515 9.19183 4.03648 9.25346 4.12227 9.32229C5.11184 10.2108 5.70679 12.8392 6.11565 14.123C6.52455 12.8392 7.11946 10.2108 8.10908 9.32229C8.19485 9.25345 8.28618 9.19182 8.38212 9.13805L9.58241 8.46524L8.02693 7.56686C8.02579 7.32324 8.00803 7.08414 7.96736 6.85362C8.14165 6.85905 8.31708 6.8431 8.48927 6.80433C8.7536 6.74481 9.00612 6.63148 9.21941 6.46333C9.43908 6.29019 9.60955 6.06338 9.70289 5.7989C9.84779 5.38829 9.78617 4.95657 9.60027 4.57038L9.50455 4.37157L9.50451 4.37152Z" fill="white"/>
</g>
<defs>
<clipPath id="clip0_495_36507">
<rect width="12" height="14.2857" fill="white" transform="translate(0.115601 0.799339)"/>
</clipPath>
</defs>
</svg>
