<svg width="21" height="21" viewBox="0 0 21 21" fill="none" xmlns="http://www.w3.org/2000/svg">
<path d="M17.5361 10.9422C17.5361 11.9243 17.3427 12.8967 16.9669 13.804C16.591 14.7113 16.0402 15.5357 15.3458 16.2302C14.6513 16.9246 13.8269 17.4754 12.9196 17.8513C12.0123 18.2271 11.0399 18.4205 10.0578 18.4205C9.07572 18.4205 8.10327 18.2271 7.19596 17.8513C6.28865 17.4754 5.46424 16.9246 4.76982 16.2302C4.07539 15.5357 3.52454 14.7113 3.14872 13.804C2.7729 12.8967 2.57947 11.9243 2.57947 10.9422C2.57947 8.95882 3.36736 7.05668 4.76982 5.65423C6.17228 4.25177 8.07442 3.46387 10.0578 3.46387C12.0412 3.46387 13.9433 4.25177 15.3458 5.65423C16.7482 7.05668 17.5361 8.95882 17.5361 10.9422Z" stroke="white" stroke-width="1.24639" stroke-linecap="round" stroke-linejoin="round"/>
<path d="M13.3067 10.6697C13.3554 10.6966 13.3959 10.7361 13.4242 10.784C13.4524 10.832 13.4673 10.8866 13.4673 10.9422C13.4673 10.9978 13.4524 11.0524 13.4242 11.1004C13.3959 11.1483 13.3554 11.1878 13.3067 11.2147L8.65106 13.8014C8.60362 13.8278 8.55012 13.8412 8.49586 13.8406C8.44161 13.8399 8.38847 13.825 8.34172 13.7975C8.29496 13.7699 8.25621 13.7307 8.22929 13.6836C8.20237 13.6365 8.18821 13.5831 8.18823 13.5289V8.35554C8.18823 8.11789 8.44333 7.96833 8.65106 8.08382L13.3067 10.6697Z" stroke="white" stroke-width="1.24639" stroke-linecap="round" stroke-linejoin="round"/>
</svg>
