<svg width="16" height="16" viewBox="0 0 16 16" fill="none" xmlns="http://www.w3.org/2000/svg">
<g clip-path="url(#clip0_468_2405)">
<path d="M13.8343 5.35781C13.7848 5.35781 13.7428 5.34792 13.7082 5.32812C13.6735 5.30833 13.6463 5.2737 13.6265 5.22422L13.196 4.21484L12.1125 3.73984C12.063 3.72005 12.0283 3.69284 12.0085 3.6582C11.9888 3.62357 11.9789 3.58151 11.9789 3.53203C11.9789 3.48255 11.9888 3.44049 12.0085 3.40586C12.0283 3.37122 12.063 3.34401 12.1125 3.32422L13.196 2.86406L13.6265 1.89922C13.6463 1.84974 13.6735 1.8151 13.7082 1.79531C13.7428 1.77552 13.7848 1.76562 13.8343 1.76562C13.8838 1.76562 13.9259 1.77552 13.9605 1.79531C13.9951 1.8151 14.0223 1.84974 14.0421 1.89922L14.4726 2.86406L15.5562 3.32422C15.6057 3.34401 15.6403 3.37122 15.6601 3.40586C15.6799 3.44049 15.6898 3.48255 15.6898 3.53203C15.6898 3.58151 15.6799 3.62357 15.6601 3.6582C15.6403 3.69284 15.6057 3.72005 15.5562 3.73984L14.4726 4.21484L14.0421 5.22422C14.0223 5.2737 13.9951 5.30833 13.9605 5.32812C13.9259 5.34792 13.8838 5.35781 13.8343 5.35781ZM13.8343 14.2047C13.7947 14.2047 13.7552 14.1948 13.7156 14.175C13.676 14.1552 13.6463 14.1206 13.6265 14.0711L13.196 13.1062L12.1273 12.6461C12.0778 12.6263 12.0432 12.5991 12.0234 12.5645C12.0036 12.5298 11.9937 12.4878 11.9937 12.4383C11.9937 12.3888 12.0036 12.3467 12.0234 12.3121C12.0432 12.2775 12.0778 12.2503 12.1273 12.2305L13.196 11.7703L13.6265 10.7461C13.6463 10.6966 13.6735 10.662 13.7082 10.6422C13.7428 10.6224 13.7848 10.6125 13.8343 10.6125C13.8838 10.6125 13.9259 10.6224 13.9605 10.6422C13.9951 10.662 14.0223 10.6966 14.0421 10.7461L14.4726 11.7703L15.5414 12.2305C15.5908 12.2503 15.6255 12.2775 15.6453 12.3121C15.6651 12.3467 15.675 12.3888 15.675 12.4383C15.675 12.4878 15.6651 12.5298 15.6453 12.5645C15.6255 12.5991 15.5908 12.6263 15.5414 12.6461L14.4726 13.1062L14.0421 14.0711C14.0223 14.1206 13.9927 14.1552 13.9531 14.175C13.9135 14.1948 13.8739 14.2047 13.8343 14.2047ZM7.31792 11.6367C7.23875 11.6367 7.16206 11.6145 7.08784 11.5699C7.01362 11.5254 6.95672 11.4635 6.91714 11.3844L5.9523 9.32109L3.87417 8.38594C3.795 8.34635 3.73315 8.28945 3.68862 8.21523C3.64409 8.14102 3.62183 8.06432 3.62183 7.98516C3.62183 7.90599 3.64409 7.8293 3.68862 7.75508C3.73315 7.68086 3.795 7.62396 3.87417 7.58437L5.9523 6.64922L6.91714 4.60078C6.95672 4.51172 7.01362 4.44492 7.08784 4.40039C7.16206 4.35586 7.23875 4.33359 7.31792 4.33359C7.39709 4.33359 7.47378 4.35586 7.548 4.40039C7.62222 4.44492 7.67912 4.50677 7.7187 4.58594L8.69839 6.64922L10.7617 7.58437C10.8507 7.62396 10.9175 7.68086 10.9621 7.75508C11.0066 7.8293 11.0289 7.90599 11.0289 7.98516C11.0289 8.06432 11.0066 8.14102 10.9621 8.21523C10.9175 8.28945 10.8507 8.34635 10.7617 8.38594L8.69839 9.32109L7.7187 11.3844C7.67912 11.4734 7.62222 11.5378 7.548 11.5773C7.47378 11.6169 7.39709 11.6367 7.31792 11.6367Z" fill="white"/>
</g>
<defs>
<clipPath id="clip0_468_2405">
<rect width="14.25" height="14.25" fill="white" transform="translate(0.875 0.875)"/>
</clipPath>
</defs>
</svg>
